<svg width="222" height="222" fill="none" xmlns="http://www.w3.org/2000/svg"><path d="M14.505 55.754l41.272-41.272A111.478 111.478 0 0035.49 29.36l-6.106 6.106c-5.683 6.18-10.692 12.96-14.88 20.287zM2.193 88.553L88.576 2.17c-2.392.473-4.735 1.046-7.078 1.67L3.863 81.474a100.47 100.47 0 00-1.67 7.078zM0 110.51v.698L111.206.001h-.697c-1.595 0-3.215.05-4.786.1L.1 105.725c-.05 1.595-.1 3.19-.1 4.785zM1.72 130L129.997 1.72a100.334 100.334 0 00-4.66-.722L.997 125.34c.2 1.545.448 3.116.722 4.661zm4.187 16.274L146.273 5.908a77.453 77.453 0 00-4.087-1.296L4.611 142.187a110.38 110.38 0 001.296 4.087zm6.106 14.381L160.678 11.989c-1.196-.623-2.417-1.196-3.638-1.77L10.243 157.017a81.787 81.787 0 001.77 3.639zm7.676 12.81l153.8-153.8a92.431 92.431 0 00-3.24-2.168L17.52 170.225a60.515 60.515 0 002.169 3.24zm9.071 11.415L184.879 28.762a137.773 137.773 0 00-2.866-2.517L26.243 182.014a89.843 89.843 0 002.518 2.866zm10.419 10.044L194.923 39.18a139.13 139.13 0 00-2.517-2.89L36.288 192.406a129.88 129.88 0 002.891 2.517zm11.788 8.723L203.646 50.969a91.474 91.474 0 00-2.169-3.24l-153.75 153.75c1.072.723 2.144 1.445 3.24 2.168zm13.235 7.228L210.874 64.203c-.573-1.221-1.147-2.442-1.77-3.639L60.538 209.13a119.22 119.22 0 003.664 1.745zm14.878 5.608L216.506 79.057c-.399-1.37-.848-2.741-1.296-4.087L74.993 215.187a65.81 65.81 0 004.087 1.296zm16.874 3.588L220.07 95.955a96.16 96.16 0 00-.722-4.686L91.268 219.35c1.57.299 3.116.523 4.686.722zm14.554.972c1.72 0 3.415-.05 5.085-.124l105.3-105.3c.074-1.695.124-3.39.124-5.084v-.424L110.085 221.043h.423zm29.434-3.962l77.137-77.137a113.73 113.73 0 001.72-7.103l-85.96 85.96c2.393-.499 4.76-1.097 7.103-1.72zm66.196-51.117l-40.2 40.201a111.412 111.412 0 0040.2-40.201z" fill="#34B6DC"/></svg>