<svg width="200" height="200" fill="none" xmlns="http://www.w3.org/2000/svg"><path d="M2.18 4.457c1.204 0 2.18-.998 2.18-2.228C4.36.998 3.384 0 2.18 0 .976 0 0 .998 0 2.229c0 1.23.976 2.228 2.18 2.228zm19.558 0c1.204 0 2.18-.998 2.18-2.228C23.918.998 22.942 0 21.738 0c-1.204 0-2.18.998-2.18 2.229 0 1.23.976 2.228 2.18 2.228zm19.572 0c1.205 0 2.18-.998 2.18-2.228C43.49.998 42.516 0 41.31 0c-1.203 0-2.18.998-2.18 2.229 0 1.23.977 2.228 2.18 2.228zm19.559 0c1.204 0 2.18-.998 2.18-2.228C63.049.998 62.073 0 60.869 0c-1.204 0-2.18.998-2.18 2.229 0 1.23.976 2.228 2.18 2.228zm19.573 0c1.204 0 2.18-.998 2.18-2.228C82.622.998 81.646 0 80.442 0c-1.204 0-2.18.998-2.18 2.229 0 1.23.976 2.228 2.18 2.228zm21.738-2.228c0 1.225-.981 2.228-2.18 2.228-1.199 0-2.18-.987-2.18-2.228C97.82 1.003 98.801 0 100 0c1.199 0 2.18.987 2.18 2.229zm17.377 2.228c1.204 0 2.18-.998 2.18-2.228 0-1.231-.976-2.229-2.18-2.229-1.204 0-2.18.998-2.18 2.229 0 1.23.976 2.228 2.18 2.228zm21.738-2.228c0 1.225-.981 2.228-2.18 2.228-1.199 0-2.18-.987-2.18-2.228 0-1.226.981-2.229 2.18-2.229 1.215 0 2.18.987 2.18 2.229zm17.394 2.228c1.204 0 2.18-.998 2.18-2.228 0-1.231-.976-2.229-2.18-2.229-1.204 0-2.18.998-2.18 2.229 0 1.23.976 2.228 2.18 2.228zm21.738-2.228c0 1.225-.981 2.228-2.18 2.228-1.199 0-2.18-.987-2.18-2.228 0-1.226.981-2.229 2.18-2.229 1.214 0 2.18.987 2.18 2.229zm17.393 2.228c1.204 0 2.18-.998 2.18-2.228C200 .998 199.024 0 197.82 0c-1.204 0-2.18.998-2.18 2.229 0 1.23.976 2.228 2.18 2.228zM2.18 22.222c1.204 0 2.18-.998 2.18-2.229 0-1.23-.976-2.228-2.18-2.228-1.204 0-2.18.998-2.18 2.228 0 1.231.976 2.229 2.18 2.229zm19.558 0c1.204 0 2.18-.998 2.18-2.229 0-1.23-.976-2.228-2.18-2.228-1.204 0-2.18.998-2.18 2.228 0 1.231.976 2.229 2.18 2.229zm19.572 0c1.205 0 2.18-.998 2.18-2.229 0-1.23-.975-2.228-2.18-2.228-1.203 0-2.18.998-2.18 2.228 0 1.231.977 2.229 2.18 2.229zm19.559 0c1.204 0 2.18-.998 2.18-2.229 0-1.23-.976-2.228-2.18-2.228-1.204 0-2.18.998-2.18 2.228 0 1.231.976 2.229 2.18 2.229zm19.573 0c1.204 0 2.18-.998 2.18-2.229 0-1.23-.976-2.228-2.18-2.228-1.204 0-2.18.997-2.18 2.228 0 1.231.976 2.229 2.18 2.229zm21.738-2.229c0 1.226-.981 2.229-2.18 2.229-1.199 0-2.18-.987-2.18-2.229 0-1.225.981-2.228 2.18-2.228a2.222 2.222 0 012.18 2.228zm17.377 2.229c1.204 0 2.18-.998 2.18-2.229 0-1.23-.976-2.228-2.18-2.228-1.204 0-2.18.998-2.18 2.228 0 1.231.976 2.229 2.18 2.229zm21.738-2.229c0 1.226-.981 2.229-2.18 2.229-1.199 0-2.18-.987-2.18-2.229 0-1.225.981-2.228 2.18-2.228a2.211 2.211 0 012.18 2.228zm17.394 2.229c1.204 0 2.18-.998 2.18-2.229 0-1.23-.976-2.228-2.18-2.228-1.204 0-2.18.998-2.18 2.228 0 1.231.976 2.229 2.18 2.229zm21.738-2.229c0 1.226-.981 2.229-2.18 2.229-1.199 0-2.18-.987-2.18-2.229 0-1.225.981-2.228 2.18-2.228a2.212 2.212 0 012.18 2.228zm17.393 2.229c1.204 0 2.18-.998 2.18-2.229 0-1.23-.976-2.228-2.18-2.228-1.204 0-2.18.997-2.18 2.228 0 1.231.976 2.229 2.18 2.229zM4.36 37.775c0 1.225-.981 2.228-2.18 2.228C.981 40.003 0 39 0 37.775c0-1.226.965-2.229 2.18-2.229a2.222 2.222 0 012.18 2.229zm19.558 0c0 1.225-.966 2.228-2.18 2.228-1.2 0-2.18-1.003-2.18-2.228 0-1.226.98-2.229 2.18-2.229a2.211 2.211 0 012.18 2.229zm19.558 0c0 1.225-.981 2.228-2.18 2.228-1.2 0-2.18-1.003-2.18-2.228 0-1.226.965-2.229 2.18-2.229a2.211 2.211 0 012.18 2.229zm19.573 0c0 1.225-.966 2.228-2.18 2.228-1.2 0-2.18-1.003-2.18-2.228 0-1.226.98-2.229 2.18-2.229a2.222 2.222 0 012.18 2.229zm19.558 0c0 1.225-.981 2.228-2.18 2.228-1.2 0-2.18-1.003-2.18-2.228 0-1.226.965-2.229 2.18-2.229a2.211 2.211 0 012.18 2.229zm19.573 0c0 1.225-.981 2.228-2.18 2.228-1.199 0-2.18-1.003-2.18-2.228 0-1.226.981-2.229 2.18-2.229a2.222 2.222 0 012.18 2.229zm19.557 0c0 1.225-.981 2.228-2.18 2.228-1.199 0-2.18-1.003-2.18-2.228 0-1.226.966-2.229 2.18-2.229a2.222 2.222 0 012.18 2.229zm19.558 0c0 1.225-.981 2.228-2.18 2.228-1.199 0-2.18-1.003-2.18-2.228 0-1.226.981-2.229 2.18-2.229a2.211 2.211 0 012.18 2.229zm19.574 0c0 1.225-.981 2.228-2.18 2.228-1.199 0-2.18-1.003-2.18-2.228 0-1.226.965-2.229 2.18-2.229a2.222 2.222 0 012.18 2.229zm19.558 0c0 1.225-.981 2.228-2.18 2.228-1.199 0-2.18-1.003-2.18-2.228 0-1.226.981-2.229 2.18-2.229a2.212 2.212 0 012.18 2.229zm19.573 0c0 1.225-.966 2.228-2.18 2.228-1.215 0-2.18-1.003-2.18-2.228 0-1.226.965-2.229 2.18-2.229 1.214 0 2.18 1.003 2.18 2.229zM4.36 55.556c0 1.225-.981 2.228-2.18 2.228-1.199 0-2.18-.987-2.18-2.228 0-1.226.965-2.229 2.18-2.229 1.199 0 2.18 1.003 2.18 2.229zm19.558 0c0 1.225-.966 2.228-2.18 2.228-1.2 0-2.18-.987-2.18-2.228 0-1.226.98-2.229 2.18-2.229 1.214 0 2.18 1.003 2.18 2.229zm19.558 0c0 1.225-.981 2.228-2.18 2.228-1.2 0-2.18-.987-2.18-2.228 0-1.226.965-2.229 2.18-2.229 1.214 0 2.18 1.003 2.18 2.229zm19.573 0c0 1.225-.966 2.228-2.18 2.228-1.2 0-2.18-.987-2.18-2.228 0-1.226.98-2.229 2.18-2.229 1.199 0 2.18 1.003 2.18 2.229zm19.557 0c0 1.225-.98 2.228-2.18 2.228-1.198 0-2.18-.987-2.18-2.228 0-1.226.966-2.229 2.18-2.229 1.215 0 2.18 1.003 2.18 2.229zm19.574 0c0 1.225-.981 2.228-2.18 2.228-1.199 0-2.18-.987-2.18-2.228 0-1.226.981-2.229 2.18-2.229 1.199 0 2.18 1.003 2.18 2.229zm19.557 0c0 1.225-.981 2.228-2.18 2.228-1.199 0-2.18-.987-2.18-2.228 0-1.226.966-2.229 2.18-2.229 1.199 0 2.18 1.003 2.18 2.229zm19.558 0c0 1.225-.981 2.228-2.18 2.228-1.199 0-2.18-.987-2.18-2.228 0-1.226.981-2.229 2.18-2.229 1.215 0 2.18 1.003 2.18 2.229zm19.574 0c0 1.225-.981 2.228-2.18 2.228-1.199 0-2.18-.987-2.18-2.228 0-1.226.965-2.229 2.18-2.229 1.199 0 2.18 1.003 2.18 2.229zm19.558 0c0 1.225-.981 2.228-2.18 2.228-1.199 0-2.18-.987-2.18-2.228 0-1.226.981-2.229 2.18-2.229 1.214 0 2.18 1.003 2.18 2.229zm19.573 0c0 1.225-.966 2.228-2.18 2.228-1.215 0-2.18-.987-2.18-2.228 0-1.226.965-2.229 2.18-2.229 1.214 0 2.18 1.003 2.18 2.229zM2.18 75.565c1.204 0 2.18-.998 2.18-2.229 0-1.23-.976-2.228-2.18-2.228-1.204 0-2.18.997-2.18 2.228 0 1.231.976 2.229 2.18 2.229zm19.558 0c1.204 0 2.18-.998 2.18-2.229 0-1.23-.976-2.228-2.18-2.228-1.204 0-2.18.997-2.18 2.228 0 1.231.976 2.229 2.18 2.229zm19.572 0c1.205 0 2.18-.998 2.18-2.229 0-1.23-.975-2.228-2.18-2.228-1.203 0-2.18.997-2.18 2.228 0 1.231.977 2.229 2.18 2.229zm19.559 0c1.204 0 2.18-.998 2.18-2.229 0-1.23-.976-2.228-2.18-2.228-1.204 0-2.18.997-2.18 2.228 0 1.231.976 2.229 2.18 2.229zm19.573 0c1.204 0 2.18-.998 2.18-2.229 0-1.23-.976-2.228-2.18-2.228-1.204 0-2.18.997-2.18 2.228 0 1.231.976 2.229 2.18 2.229zm21.738-2.229c0 1.226-.981 2.229-2.18 2.229-1.199 0-2.18-.987-2.18-2.229 0-1.241.981-2.228 2.18-2.228 1.199 0 2.18 1.002 2.18 2.228zm17.377 2.229c1.204 0 2.18-.998 2.18-2.229 0-1.23-.976-2.228-2.18-2.228-1.204 0-2.18.997-2.18 2.228 0 1.231.976 2.229 2.18 2.229zm21.738-2.229c0 1.226-.981 2.229-2.18 2.229-1.199 0-2.18-.987-2.18-2.229 0-1.241.981-2.228 2.18-2.228 1.215 0 2.18 1.002 2.18 2.228zm17.394 2.229c1.204 0 2.18-.998 2.18-2.229 0-1.23-.976-2.228-2.18-2.228-1.204 0-2.18.997-2.18 2.228 0 1.231.976 2.229 2.18 2.229zm21.738-2.229c0 1.226-.981 2.229-2.18 2.229-1.199 0-2.18-.987-2.18-2.229 0-1.241.981-2.228 2.18-2.228 1.214 0 2.18 1.002 2.18 2.228zm17.393 2.229c1.204 0 2.18-.998 2.18-2.229 0-1.23-.976-2.228-2.18-2.228-1.204 0-2.18.997-2.18 2.228 0 1.231.976 2.229 2.18 2.229zM2.18 93.346c1.204 0 2.18-.998 2.18-2.228 0-1.231-.976-2.23-2.18-2.23-1.204 0-2.18.999-2.18 2.23 0 1.23.976 2.228 2.18 2.228zm19.558 0c1.204 0 2.18-.998 2.18-2.228 0-1.231-.976-2.23-2.18-2.23-1.204 0-2.18.999-2.18 2.23 0 1.23.976 2.228 2.18 2.228zm19.572 0c1.205 0 2.18-.998 2.18-2.228 0-1.231-.975-2.23-2.18-2.23-1.203 0-2.18.999-2.18 2.23 0 1.23.977 2.228 2.18 2.228zm19.559 0c1.204 0 2.18-.998 2.18-2.228 0-1.231-.976-2.23-2.18-2.23-1.204 0-2.18.999-2.18 2.23 0 1.23.976 2.228 2.18 2.228zm19.573 0c1.204 0 2.18-.998 2.18-2.229 0-1.23-.976-2.228-2.18-2.228-1.204 0-2.18.998-2.18 2.228 0 1.231.976 2.229 2.18 2.229zm21.738-2.228c0 1.225-.981 2.228-2.18 2.228-1.199 0-2.18-1.003-2.18-2.228 0-1.226.981-2.23 2.18-2.23 1.199 0 2.18.988 2.18 2.23zm17.377 2.228c1.204 0 2.18-.998 2.18-2.228 0-1.231-.976-2.23-2.18-2.23-1.204 0-2.18.999-2.18 2.23 0 1.23.976 2.228 2.18 2.228zm21.738-2.228c0 1.225-.981 2.228-2.18 2.228-1.199 0-2.18-1.003-2.18-2.228 0-1.226.981-2.23 2.18-2.23 1.215 0 2.18.988 2.18 2.23zm17.394 2.228c1.204 0 2.18-.998 2.18-2.228 0-1.231-.976-2.23-2.18-2.23-1.204 0-2.18.999-2.18 2.23 0 1.23.976 2.228 2.18 2.228zm21.738-2.228c0 1.225-.981 2.228-2.18 2.228-1.199 0-2.18-1.003-2.18-2.228 0-1.226.981-2.23 2.18-2.23 1.214 0 2.18.988 2.18 2.23zm17.393 2.228c1.204 0 2.18-.998 2.18-2.229 0-1.23-.976-2.228-2.18-2.228-1.204 0-2.18.998-2.18 2.228 0 1.231.976 2.229 2.18 2.229zM2.18 111.111c1.204 0 2.18-.998 2.18-2.228 0-1.231-.976-2.229-2.18-2.229-1.204 0-2.18.998-2.18 2.229 0 1.23.976 2.228 2.18 2.228zm19.558 0c1.204 0 2.18-.998 2.18-2.228 0-1.231-.976-2.229-2.18-2.229-1.204 0-2.18.998-2.18 2.229 0 1.23.976 2.228 2.18 2.228zm19.572 0c1.205 0 2.18-.998 2.18-2.228 0-1.231-.975-2.229-2.18-2.229-1.203 0-2.18.998-2.18 2.229 0 1.23.977 2.228 2.18 2.228zm19.559 0c1.204 0 2.18-.998 2.18-2.228 0-1.231-.976-2.229-2.18-2.229-1.204 0-2.18.998-2.18 2.229 0 1.23.976 2.228 2.18 2.228zm19.573 0c1.204 0 2.18-.998 2.18-2.228 0-1.231-.976-2.229-2.18-2.229-1.204 0-2.18.998-2.18 2.229 0 1.23.976 2.228 2.18 2.228zm21.738-2.228c0 1.225-.981 2.228-2.18 2.228-1.199 0-2.18-.987-2.18-2.228 0-1.242.981-2.229 2.18-2.229a2.222 2.222 0 012.18 2.229zm17.377 2.228c1.204 0 2.18-.998 2.18-2.228 0-1.231-.976-2.229-2.18-2.229-1.204 0-2.18.998-2.18 2.229 0 1.23.976 2.228 2.18 2.228zm21.738-2.228c0 1.225-.981 2.228-2.18 2.228-1.199 0-2.18-.987-2.18-2.228 0-1.242.981-2.229 2.18-2.229a2.211 2.211 0 012.18 2.229zm17.394 2.228c1.204 0 2.18-.998 2.18-2.228 0-1.231-.976-2.229-2.18-2.229-1.204 0-2.18.998-2.18 2.229 0 1.23.976 2.228 2.18 2.228zm21.738-2.228c0 1.225-.981 2.228-2.18 2.228-1.199 0-2.18-.987-2.18-2.228 0-1.242.981-2.229 2.18-2.229a2.212 2.212 0 012.18 2.229zm17.393 2.228c1.204 0 2.18-.998 2.18-2.228 0-1.231-.976-2.229-2.18-2.229-1.204 0-2.18.998-2.18 2.229 0 1.23.976 2.228 2.18 2.228zM4.36 126.663c0 1.226-.981 2.229-2.18 2.229-1.199 0-2.18-.987-2.18-2.229 0-1.226.965-2.228 2.18-2.228a2.22 2.22 0 012.18 2.228zm19.558 0c0 1.226-.966 2.229-2.18 2.229-1.2 0-2.18-.987-2.18-2.229 0-1.226.98-2.228 2.18-2.228a2.21 2.21 0 012.18 2.228zm19.558 0c0 1.226-.981 2.229-2.18 2.229-1.2 0-2.18-.987-2.18-2.229 0-1.225.965-2.228 2.18-2.228a2.211 2.211 0 012.18 2.228zm19.573 0c0 1.226-.966 2.229-2.18 2.229-1.2 0-2.18-.987-2.18-2.229 0-1.226.98-2.228 2.18-2.228a2.22 2.22 0 012.18 2.228zm19.557 0c0 1.226-.98 2.229-2.18 2.229-1.198 0-2.18-.987-2.18-2.229 0-1.226.966-2.228 2.18-2.228a2.21 2.21 0 012.18 2.228zm19.574 0c0 1.226-.981 2.229-2.18 2.229-1.199 0-2.18-.987-2.18-2.229 0-1.226.981-2.228 2.18-2.228a2.22 2.22 0 012.18 2.228zm19.557 0c0 1.226-.981 2.229-2.18 2.229-1.199 0-2.18-.987-2.18-2.229 0-1.226.966-2.228 2.18-2.228a2.22 2.22 0 012.18 2.228zm19.558 0c0 1.226-.981 2.229-2.18 2.229-1.199 0-2.18-.987-2.18-2.229 0-1.226.981-2.228 2.18-2.228a2.21 2.21 0 012.18 2.228zm19.574 0c0 1.226-.981 2.229-2.18 2.229-1.199 0-2.18-.987-2.18-2.229 0-1.226.965-2.228 2.18-2.228a2.22 2.22 0 012.18 2.228zm19.558 0c0 1.226-.981 2.229-2.18 2.229-1.199 0-2.18-.987-2.18-2.229 0-1.226.981-2.228 2.18-2.228a2.211 2.211 0 012.18 2.228zm19.573 0c0 1.226-.966 2.229-2.18 2.229-1.215 0-2.18-.987-2.18-2.229 0-1.225.965-2.228 2.18-2.228 1.214 0 2.18 1.003 2.18 2.228zM4.36 144.444c0 1.226-.981 2.229-2.18 2.229-1.199 0-2.18-.987-2.18-2.229 0-1.225.965-2.228 2.18-2.228 1.199 0 2.18 1.003 2.18 2.228zm19.558 0c0 1.226-.966 2.229-2.18 2.229-1.2 0-2.18-.987-2.18-2.229 0-1.225.98-2.228 2.18-2.228 1.214 0 2.18 1.003 2.18 2.228zm19.558 0c0 1.226-.981 2.229-2.18 2.229-1.2 0-2.18-.987-2.18-2.229 0-1.225.965-2.228 2.18-2.228 1.214 0 2.18 1.003 2.18 2.228zm19.573 0c0 1.226-.966 2.229-2.18 2.229-1.2 0-2.18-.987-2.18-2.229 0-1.225.98-2.228 2.18-2.228 1.199 0 2.18 1.003 2.18 2.228zm19.557 0c0 1.226-.98 2.229-2.18 2.229-1.198 0-2.18-.987-2.18-2.229 0-1.225.966-2.228 2.18-2.228 1.215 0 2.18 1.003 2.18 2.228zm19.574 0c0 1.226-.981 2.229-2.18 2.229-1.199 0-2.18-.987-2.18-2.229 0-1.225.981-2.228 2.18-2.228 1.199 0 2.18 1.003 2.18 2.228zm19.557 0c0 1.226-.981 2.229-2.18 2.229-1.199 0-2.18-.987-2.18-2.229 0-1.225.966-2.228 2.18-2.228 1.199 0 2.18 1.003 2.18 2.228zm19.558 0c0 1.226-.981 2.229-2.18 2.229-1.199 0-2.18-.987-2.18-2.229 0-1.225.981-2.228 2.18-2.228 1.215 0 2.18 1.003 2.18 2.228zm19.574 0c0 1.226-.981 2.229-2.18 2.229-1.199 0-2.18-.987-2.18-2.229 0-1.225.965-2.228 2.18-2.228 1.199 0 2.18 1.003 2.18 2.228zm19.558 0c0 1.226-.981 2.229-2.18 2.229-1.199 0-2.18-.987-2.18-2.229 0-1.225.981-2.228 2.18-2.228 1.214 0 2.18 1.003 2.18 2.228zm19.573 0c0 1.226-.966 2.229-2.18 2.229-1.215 0-2.18-.987-2.18-2.229 0-1.225.965-2.228 2.18-2.228 1.214 0 2.18 1.003 2.18 2.228zM2.18 164.454c1.204 0 2.18-.998 2.18-2.229 0-1.23-.976-2.228-2.18-2.228-1.204 0-2.18.998-2.18 2.228 0 1.231.976 2.229 2.18 2.229zm19.558 0c1.204 0 2.18-.998 2.18-2.229 0-1.23-.976-2.228-2.18-2.228-1.204 0-2.18.998-2.18 2.228 0 1.231.976 2.229 2.18 2.229zm19.572 0c1.205 0 2.18-.998 2.18-2.229 0-1.23-.975-2.228-2.18-2.228-1.203 0-2.18.998-2.18 2.228 0 1.231.977 2.229 2.18 2.229zm19.559 0c1.204 0 2.18-.998 2.18-2.229 0-1.23-.976-2.228-2.18-2.228-1.204 0-2.18.998-2.18 2.228 0 1.231.976 2.229 2.18 2.229zm19.573 0c1.204 0 2.18-.998 2.18-2.229s-.976-2.228-2.18-2.228c-1.204 0-2.18.997-2.18 2.228 0 1.231.976 2.229 2.18 2.229zm21.738-2.229c0 1.226-.981 2.229-2.18 2.229-1.199 0-2.18-.987-2.18-2.229 0-1.241.981-2.228 2.18-2.228 1.199 0 2.18 1.003 2.18 2.228zm17.377 2.229c1.204 0 2.18-.998 2.18-2.229 0-1.23-.976-2.228-2.18-2.228-1.204 0-2.18.998-2.18 2.228 0 1.231.976 2.229 2.18 2.229zm21.738-2.229c0 1.226-.981 2.229-2.18 2.229-1.199 0-2.18-.987-2.18-2.229 0-1.241.981-2.228 2.18-2.228 1.215 0 2.18 1.003 2.18 2.228zm17.394 2.229c1.204 0 2.18-.998 2.18-2.229 0-1.23-.976-2.228-2.18-2.228-1.204 0-2.18.998-2.18 2.228 0 1.231.976 2.229 2.18 2.229zm21.738-2.229c0 1.226-.981 2.229-2.18 2.229-1.199 0-2.18-.987-2.18-2.229 0-1.241.981-2.228 2.18-2.228 1.214 0 2.18 1.003 2.18 2.228zm17.393 2.229c1.204 0 2.18-.998 2.18-2.229s-.976-2.228-2.18-2.228c-1.204 0-2.18.997-2.18 2.228 0 1.231.976 2.229 2.18 2.229zM4.36 179.99c0 1.226-.981 2.229-2.18 2.229-1.199 0-2.18-1.003-2.18-2.229 0-1.225.965-2.228 2.18-2.228a2.222 2.222 0 012.18 2.228zm19.558 0c0 1.226-.966 2.229-2.18 2.229-1.2 0-2.18-1.003-2.18-2.229 0-1.225.98-2.228 2.18-2.228a2.211 2.211 0 012.18 2.228zm19.558 0c0 1.226-.981 2.229-2.18 2.229-1.2 0-2.18-1.003-2.18-2.229 0-1.225.965-2.228 2.18-2.228a2.211 2.211 0 012.18 2.228zm19.573 0c0 1.226-.966 2.229-2.18 2.229-1.2 0-2.18-1.003-2.18-2.229 0-1.225.98-2.228 2.18-2.228a2.222 2.222 0 012.18 2.228zm19.558 0c0 1.226-.981 2.229-2.18 2.229-1.2 0-2.18-1.003-2.18-2.229 0-1.225.965-2.228 2.18-2.228a2.211 2.211 0 012.18 2.228zm19.573 0c0 1.226-.981 2.229-2.18 2.229-1.199 0-2.18-1.003-2.18-2.229 0-1.225.981-2.228 2.18-2.228a2.222 2.222 0 012.18 2.228zm19.557 0c0 1.226-.981 2.229-2.18 2.229-1.199 0-2.18-1.003-2.18-2.229 0-1.225.966-2.228 2.18-2.228a2.222 2.222 0 012.18 2.228zm19.558 0c0 1.226-.981 2.229-2.18 2.229-1.199 0-2.18-1.003-2.18-2.229 0-1.225.981-2.228 2.18-2.228a2.211 2.211 0 012.18 2.228zm19.574 0c0 1.226-.981 2.229-2.18 2.229-1.199 0-2.18-1.003-2.18-2.229 0-1.225.965-2.228 2.18-2.228a2.222 2.222 0 012.18 2.228zm19.558 0c0 1.226-.981 2.229-2.18 2.229-1.199 0-2.18-1.003-2.18-2.229 0-1.225.981-2.228 2.18-2.228a2.212 2.212 0 012.18 2.228zm19.573 0c0 1.226-.966 2.229-2.18 2.229-1.215 0-2.18-1.003-2.18-2.229 0-1.225.965-2.228 2.18-2.228 1.214 0 2.18 1.003 2.18 2.228zM2.18 200c1.204 0 2.18-.998 2.18-2.229 0-1.23-.976-2.228-2.18-2.228-1.204 0-2.18.998-2.18 2.228C0 199.002.976 200 2.18 200zm19.558 0c1.204 0 2.18-.998 2.18-2.229 0-1.23-.976-2.228-2.18-2.228-1.204 0-2.18.998-2.18 2.228 0 1.231.976 2.229 2.18 2.229zm19.572 0c1.205 0 2.18-.998 2.18-2.229 0-1.23-.975-2.228-2.18-2.228-1.203 0-2.18.998-2.18 2.228 0 1.231.977 2.229 2.18 2.229zm19.559 0c1.204 0 2.18-.998 2.18-2.229 0-1.23-.976-2.228-2.18-2.228-1.204 0-2.18.998-2.18 2.228 0 1.231.976 2.229 2.18 2.229zm19.573 0c1.204 0 2.18-.998 2.18-2.229 0-1.23-.976-2.228-2.18-2.228-1.204 0-2.18.998-2.18 2.228 0 1.231.976 2.229 2.18 2.229zm21.738-2.229c0 1.226-.981 2.229-2.18 2.229-1.199 0-2.18-1.003-2.18-2.229 0-1.225.981-2.228 2.18-2.228a2.222 2.222 0 012.18 2.228zM119.557 200c1.204 0 2.18-.998 2.18-2.229 0-1.23-.976-2.228-2.18-2.228-1.204 0-2.18.998-2.18 2.228 0 1.231.976 2.229 2.18 2.229zm21.738-2.229c0 1.226-.981 2.229-2.18 2.229-1.199 0-2.18-1.003-2.18-2.229 0-1.225.981-2.228 2.18-2.228a2.211 2.211 0 012.18 2.228zM158.689 200c1.204 0 2.18-.998 2.18-2.229 0-1.23-.976-2.228-2.18-2.228-1.204 0-2.18.998-2.18 2.228 0 1.231.976 2.229 2.18 2.229zm21.738-2.229c0 1.226-.981 2.229-2.18 2.229-1.199 0-2.18-1.003-2.18-2.229 0-1.225.981-2.228 2.18-2.228a2.212 2.212 0 012.18 2.228zM197.82 200c1.204 0 2.18-.998 2.18-2.229 0-1.23-.976-2.228-2.18-2.228-1.204 0-2.18.998-2.18 2.228 0 1.231.976 2.229 2.18 2.229z" opacity=".7" fill="#6D6D6D"/></svg>