<svg width="130" height="130" fill="none" xmlns="http://www.w3.org/2000/svg"><g filter="url(#filter0_d_147_245)"><path d="M49.13 24A9.11 9.11 0 0040 33.13v31.74A9.11 9.11 0 0049.13 74h17.203V54.453h-5.169v-7.037h5.169v-6.013c0-4.724 3.054-9.06 10.089-9.06 2.848 0 4.955.273 4.955.273l-.166 6.572s-2.148-.02-4.492-.02c-2.537 0-2.944 1.168-2.944 3.109v5.139h7.637l-.332 7.037h-7.305V74h7.095A9.11 9.11 0 0090 64.87V33.13A9.11 9.11 0 0080.87 24H49.13z" fill="#2D2D2D"/></g><defs><filter id="filter0_d_147_245" x="0" y="0" width="130" height="130" filterUnits="userSpaceOnUse" color-interpolation-filters="sRGB"><feFlood flood-opacity="0" result="BackgroundImageFix"/><feColorMatrix in="SourceAlpha" values="0 0 0 0 0 0 0 0 0 0 0 0 0 0 0 0 0 0 127 0" result="hardAlpha"/><feOffset dy="16"/><feGaussianBlur stdDeviation="20"/><feColorMatrix values="0 0 0 0 0.286137 0 0 0 0 0.390985 0 0 0 0 0.495833 0 0 0 0.2 0"/><feBlend in2="BackgroundImageFix" result="effect1_dropShadow_147_245"/><feBlend in="SourceGraphic" in2="effect1_dropShadow_147_245" result="shape"/></filter></defs></svg>