<svg width="75" height="60" fill="none" xmlns="http://www.w3.org/2000/svg"><path d="M33.734 17.56a15.351 15.351 0 010 4.989l2.65 2.363c.836.752 1.182 1.838.74 2.984-.274.526-.573 1.254-.907 1.85l-.37.645c-.465.597-.752 1.17-1.17 1.731-.68.907-1.874 1.206-2.948.848l-3.378-1.11a14.999 14.999 0 01-4.321 2.506l-.824 3.462a2.434 2.434 0 01-2.113 2.137 20.624 20.624 0 01-4.87 0c-1.122-.144-2.09-1.027-2.22-2.137l-.824-3.462a16.122 16.122 0 01-4.22-2.506l-3.368 1.11c-1.073.358-2.27.06-2.95-.848a21.237 21.237 0 01-1.18-1.743l-.36-.632a19.75 19.75 0 01-.906-1.85c-.443-1.146-.104-2.233.74-2.985l2.647-2.363c-.134-.812-.31-1.648-.31-2.602 0-.74.176-1.576.31-2.388L.934 15.196c-.843-.86-1.182-1.946-.74-2.985.271-.74.574-1.254.906-1.855l.363-.626a19.85 19.85 0 011.178-1.745c.68-.902 1.877-1.201 2.95-.848l3.368 1.11a16.23 16.23 0 014.22-2.5l.824-3.47c.13-1.107 1.098-1.994 2.22-2.13a20.197 20.197 0 014.87 0 2.423 2.423 0 012.113 2.13l.824 3.47a15.09 15.09 0 014.32 2.5l3.379-1.11c1.074-.353 2.268-.054 2.948.848.418.557.705 1.137 1.17 1.736l.37.644c.334.598.633 1.214.907 1.846.442 1.039.096 2.125-.74 2.985l-2.65 2.363zm-15.076-3.343c-3.163 0-5.73 2.674-5.73 5.73 0 3.27 2.567 5.73 5.73 5.73 3.163 0 5.73-2.46 5.73-5.73 0-3.056-2.567-5.73-5.73-5.73zm38.783 41.922c-.812.131-1.647.203-2.495.203-.847 0-1.683-.072-2.495-.203l-2.363 2.65c-.86.836-1.946 1.182-2.984.74a20.394 20.394 0 01-1.85-.907l-.645-.37c-.597-.466-1.17-.752-1.731-1.17-.907-.68-1.206-1.874-.848-2.948l1.11-3.379a14.999 14.999 0 01-2.506-4.32l-3.462-.824a2.434 2.434 0 01-2.137-2.113 20.52 20.52 0 01-.143-2.435c0-.824.048-1.636.143-2.435.144-1.122 1.027-2.09 2.137-2.22l3.462-.824a15.994 15.994 0 012.507-4.214l-1.11-3.378c-.359-1.074-.06-2.268.847-2.948.56-.418 1.146-.92 1.743-1.182l.632-.358c.597-.335 1.11-.633 1.85-.908 1.04-.441 2.125-.095 2.985.74l2.363 2.65a15.636 15.636 0 012.495-.202c.848 0 1.683.071 2.495.203l2.363-2.65c.752-.836 1.839-1.182 2.985-.74.632.274 1.253.572 1.85.907l.633.358c.596.262 1.181.764 1.742 1.182.907.68 1.206 1.874.848 2.948l-1.11 3.378a15.997 15.997 0 012.506 4.214l3.462.823c1.11.132 1.993 1.099 2.137 2.22a20.64 20.64 0 010 4.871 2.434 2.434 0 01-2.137 2.113l-3.462.823a15.001 15.001 0 01-2.506 4.322l1.11 3.378c.358 1.074.06 2.268-.848 2.948-.56.418-1.134.704-1.73 1.17l-.645.37c-.597.334-1.325.633-1.85.907-1.146.442-2.233.096-2.985-.74l-2.363-2.65zm3.235-15.076a5.731 5.731 0 00-5.73-5.73 5.731 5.731 0 00-5.73 5.73 5.731 5.731 0 005.73 5.73 5.731 5.731 0 005.73-5.73z" fill="#2D2D2D"/></svg>