<svg width="130" height="130" fill="none" xmlns="http://www.w3.org/2000/svg"><g filter="url(#filter0_d_147_247)"><path fill-rule="evenodd" clip-rule="evenodd" d="M65 24c-13.813 0-25 11.47-25 25.632 0 11.343 7.156 20.923 17.094 24.319 1.25.224 1.718-.545 1.718-1.217 0-.61-.03-2.628-.03-4.774-6.282 1.185-7.907-1.57-8.407-3.012-.281-.737-1.5-3.012-2.563-3.62-.874-.482-2.124-1.667-.03-1.699 1.968-.032 3.374 1.858 3.843 2.627 2.25 3.877 5.844 2.788 7.281 2.115.219-1.666.875-2.788 1.594-3.428-5.563-.641-11.375-2.852-11.375-12.656 0-2.788.969-5.095 2.563-6.889-.25-.64-1.126-3.268.25-6.793 0 0 2.093-.672 6.874 2.628 2-.577 4.126-.865 6.25-.865 2.126 0 4.25.288 6.25.865 4.782-3.332 6.876-2.628 6.876-2.628 1.374 3.525.5 6.152.25 6.793C80.03 43.192 81 45.468 81 48.287c0 9.836-5.844 12.015-11.406 12.656.906.8 1.687 2.339 1.687 4.742 0 3.428-.031 6.183-.031 7.049 0 .672.469 1.473 1.719 1.217 4.963-1.718 9.275-4.988 12.33-9.35A26.119 26.119 0 0090 49.631C90 35.471 78.812 24 65 24z" fill="#2D2D2D"/></g><defs><filter id="filter0_d_147_247" x="0" y="0" width="130" height="130" filterUnits="userSpaceOnUse" color-interpolation-filters="sRGB"><feFlood flood-opacity="0" result="BackgroundImageFix"/><feColorMatrix in="SourceAlpha" values="0 0 0 0 0 0 0 0 0 0 0 0 0 0 0 0 0 0 127 0" result="hardAlpha"/><feOffset dy="16"/><feGaussianBlur stdDeviation="20"/><feColorMatrix values="0 0 0 0 0.286137 0 0 0 0 0.390985 0 0 0 0 0.495833 0 0 0 0.2 0"/><feBlend in2="BackgroundImageFix" result="effect1_dropShadow_147_247"/><feBlend in="SourceGraphic" in2="effect1_dropShadow_147_247" result="shape"/></filter></defs></svg>