<svg width="75" height="101" fill="none" xmlns="http://www.w3.org/2000/svg"><path d="M29.271 68.192l-.039-.04-6.405-5.643 6.405-5.643c.703-.625.781-1.719.157-2.422l-.04-.039-3.397-3.632c-.664-.703-1.758-.723-2.422-.078L12.263 61.259c-.723.684-.723 1.836 0 2.5L23.53 74.323c.313.293.742.469 1.172.469.469 0 .937-.195 1.25-.547l3.397-3.632a1.722 1.722 0 00-.078-2.421zm42.96-49.053L55.849 2.755a9.373 9.373 0 00-6.62-2.753H9.373C4.198.022 0 4.22 0 9.394V90.63c0 5.174 4.198 9.373 9.373 9.373h56.239c5.175 0 9.373-4.199 9.373-9.373V25.778c0-2.48-.996-4.882-2.753-6.64zM49.99 10.156l14.86 14.86H49.99v-14.86zm15.622 80.472H9.372V9.395h31.245v20.309a4.675 4.675 0 004.686 4.686h20.309v56.24zM40.929 41.81c-.918-.273-1.855.254-2.128 1.172l-10.682 36.73a1.699 1.699 0 001.172 2.13l4.765 1.386a1.714 1.714 0 002.128-1.172l10.682-36.75a1.699 1.699 0 00-1.172-2.13l-4.765-1.366zm4.785 15.017l.038.039 6.405 5.643-6.404 5.644c-.703.624-.782 1.718-.157 2.42l.04.04 3.397 3.632a1.722 1.722 0 002.422.078L62.722 63.76c.722-.684.722-1.836 0-2.5L51.455 50.695a1.704 1.704 0 00-2.422.078l-3.398 3.632a1.722 1.722 0 00.079 2.422z" fill="#2d2d2d"/></svg>