<svg width="100" height="76" fill="none" xmlns="http://www.w3.org/2000/svg"><path d="M83.333 9v41.666H62.5V34a8.333 8.333 0 00-8.333-8.334H33.333A8.333 8.333 0 0025 34v16.666h-8.333V9h66.666zM100 67.333V59H83.333a8.333 8.333 0 008.334-8.334V9A8.333 8.333 0 0083.333.667H16.667A8.333 8.333 0 008.333 9v41.666A8.334 8.334 0 0016.667 59H0v8.333h25a8.333 8.333 0 008.333 8.334h20.834a8.333 8.333 0 008.333-8.334H100zm-47.917 0a2.083 2.083 0 110 4.167 2.083 2.083 0 010-4.167zm-16.666 0a2.083 2.083 0 110 4.167 2.083 2.083 0 010-4.167zm10.416 0V71.5h-4.166v-4.167h4.166zM54.167 34v29.166H33.333V34h20.834z" fill="#2d2d2d"/></svg>