<svg width="88" height="100" fill="none" xmlns="http://www.w3.org/2000/svg"><path d="M50 0C22.386 0 0 22.386 0 50s22.386 50 50 50 50-22.386 50-50S77.614 0 50 0zm0 6.68c23.925 0 43.32 19.395 43.32 43.32S73.925 93.323 50 93.323 6.677 73.926 6.677 50C6.677 26.075 26.075 6.68 50 6.68zm26.865 38.417c1.439 1.36 1.394 3.312.32 4.69-1.315 1.387-3.386 1.446-4.691.32-4.077-3.698-8.537-7.16-12.687-10.98-.013.163-1.125-.735-1.599-.747-.426 0-.64.498-.64 1.493.21 4.106-.095 8.442.373 12.42.178 1.457.267 2.292.267 2.505l4.797 27.292c.275 2.507-1.095 4.379-3.304 4.798-2.214.602-4.488-1.307-4.798-3.305 0 0-3.87-22.037-3.944-22.388-.075-.351-.205-2.295-.96-2.399-.97.352-.857 1.985-.96 2.399-.102.414-3.944 22.388-3.944 22.388-.648 2.312-2.642 3.678-4.797 3.305-2.464-.616-3.668-2.585-3.305-4.798l4.797-27.398c.708-5.064.533-9.594.533-14.712 0-.996-.195-1.511-.586-1.546-.391-.036-.906.23-1.546.8L27.504 50.106c-1.482 1.105-3.554.921-4.69-.32-1.15-1.64-1.076-3.417.32-4.69l16.63-14.712c.782-.498 1.51-.835 2.186-1.013.675-.178 1.51-.267 2.505-.267h11.088c.995 0 1.83.09 2.505.267.675.178 1.404.55 2.185 1.12 5.296 4.644 10.917 9.641 16.632 14.605zM57.335 19.86a7.292 7.292 0 11-14.583 0 7.292 7.292 0 0114.584 0z" fill="#34B6DC"/></svg>