<svg width="130" height="130" fill="none" xmlns="http://www.w3.org/2000/svg"><g filter="url(#filter0_d_147_248)"><path d="M64.993 40.663c-4.59 0-8.336 3.746-8.336 8.337 0 4.59 3.746 8.337 8.336 8.337S73.33 53.59 73.33 49s-3.746-8.337-8.337-8.337zM89.997 49c0-3.452.031-6.873-.162-10.32-.194-4.002-1.107-7.555-4.034-10.482-2.933-2.933-6.48-3.84-10.482-4.034-3.453-.193-6.874-.162-10.32-.162-3.452 0-6.873-.031-10.319.163-4.002.193-7.555 1.107-10.482 4.033-2.933 2.934-3.84 6.48-4.034 10.483-.193 3.452-.162 6.873-.162 10.319 0 3.446-.031 6.873.162 10.32.194 4.002 1.107 7.555 4.034 10.482 2.934 2.933 6.48 3.84 10.482 4.033 3.453.194 6.873.163 10.32.163 3.452 0 6.873.031 10.319-.163 4.002-.193 7.555-1.106 10.482-4.033 2.933-2.934 3.84-6.48 4.034-10.483.2-3.446.162-6.867.162-10.319zM64.993 61.827A12.81 12.81 0 0152.166 49a12.81 12.81 0 0112.827-12.827A12.81 12.81 0 0177.821 49a12.81 12.81 0 01-12.828 12.827zm13.353-23.184a2.992 2.992 0 01-2.996-2.996 2.992 2.992 0 012.996-2.995 2.992 2.992 0 012.995 2.995 2.99 2.99 0 01-2.995 2.996z" fill="#2D2D2D"/></g><defs><filter id="filter0_d_147_248" x="0" y="0" width="130" height="130" filterUnits="userSpaceOnUse" color-interpolation-filters="sRGB"><feFlood flood-opacity="0" result="BackgroundImageFix"/><feColorMatrix in="SourceAlpha" values="0 0 0 0 0 0 0 0 0 0 0 0 0 0 0 0 0 0 127 0" result="hardAlpha"/><feOffset dy="16"/><feGaussianBlur stdDeviation="20"/><feColorMatrix values="0 0 0 0 0.286137 0 0 0 0 0.390985 0 0 0 0 0.495833 0 0 0 0.2 0"/><feBlend in2="BackgroundImageFix" result="effect1_dropShadow_147_248"/><feBlend in="SourceGraphic" in2="effect1_dropShadow_147_248" result="shape"/></filter></defs></svg>