<svg width="130" height="130" fill="none" xmlns="http://www.w3.org/2000/svg"><g filter="url(#filter0_d_147_246)"><path fill-rule="evenodd" clip-rule="evenodd" d="M40 28.177A4.177 4.177 0 0144.177 24h41.641A4.174 4.174 0 0190 28.177v41.641A4.178 4.178 0 0185.82 74H44.177A4.176 4.176 0 0140 69.82V28.177zm19.79 14.887h6.771v3.4c.978-1.955 3.478-3.714 7.234-3.714 7.203 0 8.91 3.893 8.91 11.036v13.232h-7.29V55.414c0-4.069-.976-6.364-3.458-6.364-3.443 0-4.875 2.475-4.875 6.364v11.604H59.79V43.064zm-12.5 23.643h7.292V42.75H47.29v23.957zm8.335-31.77a4.69 4.69 0 11-9.377.206 4.69 4.69 0 019.377-.207z" fill="#2D2D2D"/></g><defs><filter id="filter0_d_147_246" x="0" y="0" width="130" height="130" filterUnits="userSpaceOnUse" color-interpolation-filters="sRGB"><feFlood flood-opacity="0" result="BackgroundImageFix"/><feColorMatrix in="SourceAlpha" values="0 0 0 0 0 0 0 0 0 0 0 0 0 0 0 0 0 0 127 0" result="hardAlpha"/><feOffset dy="16"/><feGaussianBlur stdDeviation="20"/><feColorMatrix values="0 0 0 0 0.286137 0 0 0 0 0.390985 0 0 0 0 0.495833 0 0 0 0.2 0"/><feBlend in2="BackgroundImageFix" result="effect1_dropShadow_147_246"/><feBlend in="SourceGraphic" in2="effect1_dropShadow_147_246" result="shape"/></filter></defs></svg>