<svg width="1138" height="100" fill="none" xmlns="http://www.w3.org/2000/svg"><path d="M525.5 14.063A14.064 14.064 0 01539.562 0h96.876A14.062 14.062 0 01650.5 14.063v56.25a14.064 14.064 0 01-14.062 14.062h-96.876A14.062 14.062 0 01525.5 70.312v-56.25zm-7.812 76.562a4.687 4.687 0 100 9.375h140.624a4.687 4.687 0 100-9.375H517.688zM40.73 83.795a7.094 7.094 0 01-4.725-1.793L0 49.996l38.004-33.784a7.116 7.116 0 019.45 10.638L21.417 49.996l24.036 21.361a7.115 7.115 0 01-4.725 12.438zm63.647-.014l38.004-33.785-36.004-32.005a7.115 7.115 0 00-9.45 10.638l24.037 21.367-26.036 23.14a7.117 7.117 0 009.449 10.645zM71.091 93.864L85.322 8.477a7.116 7.116 0 10-14.032-2.34L57.06 91.522a7.114 7.114 0 008.635 8.283 7.114 7.114 0 005.396-5.942zM850 0a49.997 49.997 0 00-50 50 50 50 0 1050-50zm-43.833 53.778h13.944a79.017 79.017 0 002.111 15h-12a43.656 43.656 0 01-4.055-15zm47.611-30V6.61a22.942 22.942 0 0112.333 11.111 47.514 47.514 0 013 6l-15.333.056zm17.889 7.5a71.306 71.306 0 012.277 15h-20.166v-15h17.889zM846.222 6.61v17.167h-15.333a47.314 47.314 0 013-6A22.944 22.944 0 01846.222 6.61zm0 24.667v15h-20.111a71.307 71.307 0 012.278-15h17.833zm-26.111 14.944h-13.944a43.656 43.656 0 014.055-15h12a78.587 78.587 0 00-2.111 15zm6 7.556h20.111v15h-17.833a71.566 71.566 0 01-2.278-15zM846.278 76v17.167a22.948 22.948 0 01-12.334-11.111 47.455 47.455 0 01-3-6L846.278 76zm7.5.278h15.333a47.32 47.32 0 01-3 6 22.942 22.942 0 01-12.333 11.11v-17.11zm0-7.778v-15h20.111a71.566 71.566 0 01-2.278 15h-17.833zm26.166-15h13.945a43.657 43.657 0 01-4.056 15h-12.055a78.97 78.97 0 002.111-14.722l.055-.278zm0-7.5a78.447 78.447 0 00-2.166-14.722h12a43.676 43.676 0 014.055 15L879.944 46zm5.556-22.222h-9.944a49.572 49.572 0 00-7.723-14 44.44 44.44 0 0117.445 14h.222zm-53.333-14a49.572 49.572 0 00-7.723 14h-9.722a44.44 44.44 0 0117.445-14zm-17.5 66.666h9.777a49.572 49.572 0 007.723 14 44.44 44.44 0 01-17.445-14.166l-.055.166zm53.111 14a49.544 49.544 0 007.722-14h9.778a44.447 44.447 0 01-17.445 13.778l-.055.222zM327.19 3.659a3.658 3.658 0 10-7.317 0v6.097a10.919 10.919 0 00-4.102 2.585l-33.556 33.561a10.988 10.988 0 00-2.38 3.561 10.986 10.986 0 000 8.4 10.987 10.987 0 002.38 3.561L306.02 85.22a10.977 10.977 0 0015.522 0l33.556-33.556a10.985 10.985 0 003.214-7.76 10.986 10.986 0 00-3.214-7.761l-23.81-23.8a10.928 10.928 0 00-4.098-2.586V3.66zm-7.317 14.926v7.025a3.66 3.66 0 007.317 0v-7.025l22.727 22.732a3.659 3.659 0 010 5.17l-4.732 4.732h-57.936l.141-.146 32.483-32.488zm44.005 40.45a4.267 4.267 0 00-3.761-2.256 4.267 4.267 0 00-3.761 2.255l-9.795 18.37C341.093 87.64 348.517 100 360.117 100s19.015-12.361 13.561-22.595l-9.8-18.37zm769.572-38.303l-17.16-17.156a12.01 12.01 0 00-8.24-3.572 12.007 12.007 0 00-8.41 3.134l-12.52 12.523-8.08-7.764a6.277 6.277 0 00-4.45-1.842 6.29 6.29 0 00-4.44 1.842 6.092 6.092 0 00-1.36 2.04 6.281 6.281 0 001.36 6.851l7.76 8.077-34.62 34.624a12.463 12.463 0 00-3.57 7.577l-2.69 26.11a6.23 6.23 0 00.34 2.706 6.38 6.38 0 001.47 2.302c.59.58 1.28 1.04 2.04 1.351.77.312 1.58.47 2.41.465h.56l26.11-2.38a12.53 12.53 0 007.58-3.568l34.93-34.938 7.77 7.764a6.178 6.178 0 002.04 1.37 6.235 6.235 0 004.81 0 6.178 6.178 0 002.04-1.37 6.244 6.244 0 001.85-4.446 6.243 6.243 0 00-1.85-4.445l-7.76-7.764 12.52-12.523a12.022 12.022 0 003.29-8.574 12.074 12.074 0 00-3.73-8.394zm-81.4 47.586l35.07-34.938 16.84 16.905-17.47 17.47" fill="#F0F3F5"/></svg>