<svg width="198" height="198" fill="none" xmlns="http://www.w3.org/2000/svg"><path fill-rule="evenodd" clip-rule="evenodd" d="M101.043.02C154.776 1.109 198 45.007 198 99c0 54.676-44.324 99-99 99S0 153.676 0 99 44.324 0 99 0a101.096 101.096 0 01.5 0c.516 0 1.03.007 1.543.02zm40.979 165.249C129.643 173.322 114.868 178 99 178c-16.288 0-31.425-4.929-44-13.378V91.318C65.343 104.518 81.43 113 99.5 113c4.069 0 8.038-.43 11.863-1.247l.013.069c18.769-3.585 30.853 3.443 36.213 13.005 5.429 9.684 5.516 24.73-5.567 40.442zm28.696-33.094C175.392 122.088 178 110.849 178 99c0-22.118-9.089-42.112-23.736-56.453A56.588 56.588 0 01156 56.5c0 14.66-5.583 28.014-14.738 38.056 10.256 3.986 18.491 11.068 23.774 20.492 2.96 5.282 4.86 11.064 5.682 17.127zM20 99c0-17.305 5.564-33.31 15-46.324v92.648C25.564 132.31 20 116.305 20 99zm79.298-79c.421.002.842.007 1.262.015C120.228 20.575 136 36.696 136 56.5 136 76.658 119.658 93 99.5 93S63 76.658 63 56.5C63 36.41 79.232 20.11 99.298 20z" fill="#082535"/></svg>