<svg width="76" height="60" fill="none" xmlns="http://www.w3.org/2000/svg"><path d="M69.159 51.405c7.076-7.68 6.363-17.543 6.341-17.655v-30A3.75 3.75 0 0071.75 0h-22.5c-4.136 0-7.5 3.364-7.5 7.5v26.25a3.75 3.75 0 003.75 3.75h11.542a10.838 10.838 0 01-1.608 5.235c-1.905 3.004-5.494 5.055-10.673 6.09l-3.011.6V60h3.75c10.436 0 18.398-2.891 23.659-8.595zm-41.277 0c7.08-7.68 6.364-17.543 6.342-17.655v-30A3.75 3.75 0 0030.474 0h-22.5c-4.136 0-7.5 3.364-7.5 7.5v26.25a3.75 3.75 0 003.75 3.75h11.542a10.838 10.838 0 01-1.608 5.235c-1.905 3.004-5.494 5.055-10.673 6.09l-3.011.6V60h3.75c10.436 0 18.397-2.891 23.659-8.595z" fill="#0B3044"/></svg>