<svg width="96" height="87" fill="none" xmlns="http://www.w3.org/2000/svg"><path d="M21.768 16.69a40.547 40.547 0 0122.555-9.344v8.227a3.594 3.594 0 107.187 0V7.346A40.739 40.739 0 0188.574 45.52H80.26a3.594 3.594 0 000 7.187h8.117c-1.245 11.079-6.818 20.355-15.18 27.16a3.597 3.597 0 104.543 5.577c10.666-8.687 17.585-21.055 18.065-35.866.031-.248.038-.498.019-.747l.01-.915C95.833 21.452 74.38 0 47.916 0S0 21.452 0 47.917c0 15.582 7.298 28.53 18.065 37.5a3.594 3.594 0 004.6-5.52c-8.194-6.834-13.91-16.134-15.2-27.189h8.108a3.594 3.594 0 100-7.187H7.255a40.564 40.564 0 019.434-23.753l5.928 5.928a3.594 3.594 0 005.079-5.08l-5.928-5.927zm48.957 5.515a3.095 3.095 0 00-3.867.072l-1.044.876a1902.308 1902.308 0 00-11.266 9.536 758.862 758.862 0 00-8.927 7.729 189.145 189.145 0 00-3.301 2.97 23.966 23.966 0 00-2.013 2.032 8.802 8.802 0 001.495 12.55 9.267 9.267 0 0012.828-1.467c.421-.517.982-1.418 1.557-2.381a207.18 207.18 0 002.2-3.824 845.64 845.64 0 005.63-10.278 1782.16 1782.16 0 006.895-12.923l.628-1.193a2.937 2.937 0 00-.815-3.7z" fill="#34B6DC"/></svg>