<svg width="222" height="222" viewBox="0 0 222 222" fill="none" xmlns="http://www.w3.org/2000/svg">
<path d="M14.5047 55.7543L55.7772 14.4817C48.4498 18.6687 41.6458 23.6783 35.4899 29.3607L29.3837 35.4669C23.7013 41.6478 18.6918 48.4269 14.5047 55.7543Z" fill="#34B6DC"/>
<path d="M2.19291 88.5526L88.5761 2.16952C86.1835 2.64306 83.8407 3.21625 81.498 3.83932L3.86274 81.4745C3.21474 83.8173 2.66644 86.1849 2.19291 88.5526Z" fill="#34B6DC"/>
<path d="M0 110.51C0 110.734 0 110.983 0 111.208L111.206 0.0012207C110.982 0.0012207 110.733 0.0012207 110.509 0.0012207C108.914 0.0012207 107.294 0.051088 105.723 0.100934L0.0996753 105.725C0.0498293 107.32 0 108.915 0 110.51Z" fill="#34B6DC"/>
<path d="M1.71949 130L129.998 1.72089C128.453 1.44673 126.883 1.19756 125.338 0.998173L0.996736 125.339C1.19612 126.884 1.44533 128.455 1.71949 130Z" fill="#34B6DC"/>
<path d="M5.90701 146.274L146.273 5.90798C144.928 5.43444 143.557 5.0107 142.186 4.61193L4.611 142.187C5.00977 143.558 5.45839 144.929 5.90701 146.274Z" fill="#34B6DC"/>
<path d="M12.0126 160.655L160.678 11.9891C159.482 11.366 158.261 10.7928 157.04 10.2196L10.2431 157.016C10.8163 158.262 11.3895 159.459 12.0126 160.655Z" fill="#34B6DC"/>
<path d="M19.6887 173.465L173.489 19.6655C172.417 18.9178 171.345 18.195 170.249 17.4972L17.5204 170.225C18.2182 171.347 18.941 172.419 19.6887 173.465Z" fill="#34B6DC"/>
<path d="M28.7606 184.88L184.878 28.7625C183.931 27.9151 182.984 27.0677 182.012 26.2452L26.2434 182.014C27.0658 182.986 27.8883 183.933 28.7606 184.88Z" fill="#34B6DC"/>
<path d="M39.179 194.924L194.923 39.1804C194.101 38.2084 193.253 37.2364 192.406 36.2893L36.288 192.407C37.26 193.279 38.207 194.102 39.179 194.924Z" fill="#34B6DC"/>
<path d="M50.9674 203.647L203.646 50.9688C202.948 49.8722 202.225 48.8006 201.477 47.7289L47.7274 201.479C48.799 202.202 49.8707 202.924 50.9674 203.647Z" fill="#34B6DC"/>
<path d="M64.2018 210.875L210.874 64.203C210.301 62.9818 209.727 61.7606 209.104 60.5643L60.5382 209.13C61.7594 209.729 62.9806 210.327 64.2018 210.875Z" fill="#34B6DC"/>
<path d="M79.0803 216.483L216.506 79.0572C216.107 77.6864 215.658 76.3157 215.21 74.9698L74.9929 215.187C76.3138 215.66 77.6846 216.084 79.0803 216.483Z" fill="#34B6DC"/>
<path d="M95.9539 220.071L220.07 95.9547C219.871 94.3846 219.622 92.8145 219.348 91.2693L91.2683 219.349C92.8385 219.648 94.3837 219.872 95.9539 220.071Z" fill="#34B6DC"/>
<path d="M110.508 221.043C112.228 221.043 113.923 220.993 115.593 220.919L220.893 115.619C220.967 113.924 221.017 112.229 221.017 110.535C221.017 110.385 221.017 110.26 221.017 110.111L110.085 221.043C110.234 221.043 110.384 221.043 110.508 221.043Z" fill="#34B6DC"/>
<path d="M139.942 217.081L217.079 139.944C217.727 137.601 218.3 135.234 218.799 132.841L132.839 218.801C135.232 218.302 137.599 217.704 139.942 217.081Z" fill="#34B6DC"/>
<path d="M206.138 165.964L165.938 206.165C182.586 196.47 196.468 182.587 206.138 165.964Z" fill="#34B6DC"/>
</svg>
