<svg width="200" height="200" viewBox="0 0 200 200" fill="none" xmlns="http://www.w3.org/2000/svg">
<g opacity="0.7">
<path d="M2.17999 4.45718C3.38398 4.45718 4.35999 3.45942 4.35999 2.2286C4.35999 0.997787 3.38398 0 2.17999 0C0.976012 0 0 0.997787 0 2.2286C0 3.45942 0.976012 4.45718 2.17999 4.45718Z" fill="#6D6D6D"/>
<path d="M21.7378 4.45718C22.9418 4.45718 23.9178 3.45942 23.9178 2.2286C23.9178 0.997787 22.9418 0 21.7378 0C20.5338 0 19.5578 0.997787 19.5578 2.2286C19.5578 3.45942 20.5338 4.45718 21.7378 4.45718Z" fill="#6D6D6D"/>
<path d="M41.3109 4.45718C42.5149 4.45718 43.4909 3.45942 43.4909 2.2286C43.4909 0.997787 42.5149 0 41.3109 0C40.1069 0 39.1309 0.997787 39.1309 2.2286C39.1309 3.45942 40.1069 4.45718 41.3109 4.45718Z" fill="#6D6D6D"/>
<path d="M60.8687 4.45718C62.0727 4.45718 63.0487 3.45942 63.0487 2.2286C63.0487 0.997787 62.0727 0 60.8687 0C59.6647 0 58.6887 0.997787 58.6887 2.2286C58.6887 3.45942 59.6647 4.45718 60.8687 4.45718Z" fill="#6D6D6D"/>
<path d="M80.442 4.45718C81.6459 4.45718 82.6219 3.45942 82.6219 2.2286C82.6219 0.997787 81.6459 0 80.442 0C79.238 0 78.262 0.997787 78.262 2.2286C78.262 3.45942 79.238 4.45718 80.442 4.45718Z" fill="#6D6D6D"/>
<path d="M102.18 2.2286C102.18 3.45433 101.199 4.45718 100 4.45718C98.8011 4.45718 97.8201 3.47024 97.8201 2.2286C97.8201 1.00288 98.8011 0 100 0C101.199 0 102.18 0.986961 102.18 2.2286Z" fill="#6D6D6D"/>
<path d="M119.557 4.45718C120.761 4.45718 121.737 3.45942 121.737 2.2286C121.737 0.997787 120.761 0 119.557 0C118.353 0 117.377 0.997787 117.377 2.2286C117.377 3.45942 118.353 4.45718 119.557 4.45718Z" fill="#6D6D6D"/>
<path d="M141.295 2.2286C141.295 3.45433 140.314 4.45718 139.115 4.45718C137.916 4.45718 136.935 3.47024 136.935 2.2286C136.935 1.00288 137.916 0 139.115 0C140.33 0 141.295 0.986961 141.295 2.2286Z" fill="#6D6D6D"/>
<path d="M158.689 4.45718C159.893 4.45718 160.869 3.45942 160.869 2.2286C160.869 0.997787 159.893 0 158.689 0C157.485 0 156.509 0.997787 156.509 2.2286C156.509 3.45942 157.485 4.45718 158.689 4.45718Z" fill="#6D6D6D"/>
<path d="M180.427 2.2286C180.427 3.45433 179.446 4.45718 178.247 4.45718C177.048 4.45718 176.067 3.47024 176.067 2.2286C176.067 1.00288 177.048 0 178.247 0C179.461 0 180.427 0.986961 180.427 2.2286Z" fill="#6D6D6D"/>
<path d="M197.82 4.45718C199.024 4.45718 200 3.45942 200 2.2286C200 0.997787 199.024 0 197.82 0C196.616 0 195.64 0.997787 195.64 2.2286C195.64 3.45942 196.616 4.45718 197.82 4.45718Z" fill="#6D6D6D"/>
<path d="M2.17999 22.222C3.38398 22.222 4.35999 21.2242 4.35999 19.9934C4.35999 18.7626 3.38398 17.7648 2.17999 17.7648C0.976012 17.7648 0 18.7626 0 19.9934C0 21.2242 0.976012 22.222 2.17999 22.222Z" fill="#6D6D6D"/>
<path d="M21.7378 22.222C22.9418 22.222 23.9178 21.2242 23.9178 19.9934C23.9178 18.7626 22.9418 17.7648 21.7378 17.7648C20.5338 17.7648 19.5578 18.7626 19.5578 19.9934C19.5578 21.2242 20.5338 22.222 21.7378 22.222Z" fill="#6D6D6D"/>
<path d="M41.3109 22.222C42.5149 22.222 43.4909 21.2242 43.4909 19.9934C43.4909 18.7626 42.5149 17.7648 41.3109 17.7648C40.1069 17.7648 39.1309 18.7626 39.1309 19.9934C39.1309 21.2242 40.1069 22.222 41.3109 22.222Z" fill="#6D6D6D"/>
<path d="M60.8687 22.222C62.0727 22.222 63.0487 21.2242 63.0487 19.9934C63.0487 18.7626 62.0727 17.7648 60.8687 17.7648C59.6647 17.7648 58.6887 18.7626 58.6887 19.9934C58.6887 21.2242 59.6647 22.222 60.8687 22.222Z" fill="#6D6D6D"/>
<path d="M80.442 22.2219C81.6459 22.2219 82.622 21.2241 82.622 19.9933C82.622 18.7625 81.6459 17.7647 80.442 17.7647C79.238 17.7647 78.262 18.7625 78.262 19.9933C78.262 21.2241 79.238 22.2219 80.442 22.2219Z" fill="#6D6D6D"/>
<path d="M102.18 19.9934C102.18 21.2191 101.199 22.222 100 22.222C98.8011 22.222 97.8201 21.235 97.8201 19.9934C97.8201 18.7677 98.8011 17.7648 100 17.7648C101.199 17.7807 102.18 18.7677 102.18 19.9934Z" fill="#6D6D6D"/>
<path d="M119.557 22.222C120.761 22.222 121.737 21.2242 121.737 19.9934C121.737 18.7626 120.761 17.7648 119.557 17.7648C118.353 17.7648 117.377 18.7626 117.377 19.9934C117.377 21.2242 118.353 22.222 119.557 22.222Z" fill="#6D6D6D"/>
<path d="M141.295 19.9934C141.295 21.2191 140.314 22.222 139.115 22.222C137.916 22.222 136.935 21.235 136.935 19.9934C136.935 18.7677 137.916 17.7648 139.115 17.7648C140.33 17.7807 141.295 18.7677 141.295 19.9934Z" fill="#6D6D6D"/>
<path d="M158.689 22.222C159.893 22.222 160.869 21.2242 160.869 19.9934C160.869 18.7626 159.893 17.7648 158.689 17.7648C157.485 17.7648 156.509 18.7626 156.509 19.9934C156.509 21.2242 157.485 22.222 158.689 22.222Z" fill="#6D6D6D"/>
<path d="M180.427 19.9934C180.427 21.2191 179.446 22.222 178.247 22.222C177.048 22.222 176.067 21.235 176.067 19.9934C176.067 18.7677 177.048 17.7648 178.247 17.7648C179.461 17.7807 180.427 18.7677 180.427 19.9934Z" fill="#6D6D6D"/>
<path d="M197.82 22.2219C199.024 22.2219 200 21.2241 200 19.9933C200 18.7625 199.024 17.7647 197.82 17.7647C196.616 17.7647 195.64 18.7625 195.64 19.9933C195.64 21.2241 196.616 22.2219 197.82 22.2219Z" fill="#6D6D6D"/>
<path d="M4.35999 37.7747C4.35999 39.0004 3.379 40.0033 2.17999 40.0033C0.980992 40.0033 0 39.0004 0 37.7747C0 36.549 0.965421 35.5461 2.17999 35.5461C3.379 35.562 4.35999 36.549 4.35999 37.7747Z" fill="#6D6D6D"/>
<path d="M23.9179 37.7747C23.9179 39.0004 22.9524 40.0033 21.7379 40.0033C20.5389 40.0033 19.5579 39.0004 19.5579 37.7747C19.5579 36.549 20.5389 35.5461 21.7379 35.5461C22.9524 35.562 23.9179 36.549 23.9179 37.7747Z" fill="#6D6D6D"/>
<path d="M43.4758 37.7747C43.4758 39.0004 42.4947 40.0033 41.2957 40.0033C40.0967 40.0033 39.1157 39.0004 39.1157 37.7747C39.1157 36.549 40.0811 35.5461 41.2957 35.5461C42.5103 35.562 43.4758 36.549 43.4758 37.7747Z" fill="#6D6D6D"/>
<path d="M63.0487 37.7747C63.0487 39.0004 62.0833 40.0033 60.8687 40.0033C59.6697 40.0033 58.6887 39.0004 58.6887 37.7747C58.6887 36.549 59.6697 35.5461 60.8687 35.5461C62.0677 35.562 63.0487 36.549 63.0487 37.7747Z" fill="#6D6D6D"/>
<path d="M82.6066 37.7747C82.6066 39.0004 81.6256 40.0033 80.4266 40.0033C79.2276 40.0033 78.2466 39.0004 78.2466 37.7747C78.2466 36.549 79.212 35.5461 80.4266 35.5461C81.6411 35.562 82.6066 36.549 82.6066 37.7747Z" fill="#6D6D6D"/>
<path d="M102.18 37.7747C102.18 39.0004 101.199 40.0033 100 40.0033C98.8011 40.0033 97.8201 39.0004 97.8201 37.7747C97.8201 36.549 98.8011 35.5461 100 35.5461C101.199 35.562 102.18 36.549 102.18 37.7747Z" fill="#6D6D6D"/>
<path d="M121.737 37.7747C121.737 39.0004 120.756 40.0033 119.557 40.0033C118.358 40.0033 117.377 39.0004 117.377 37.7747C117.377 36.549 118.343 35.5461 119.557 35.5461C120.756 35.562 121.737 36.549 121.737 37.7747Z" fill="#6D6D6D"/>
<path d="M141.295 37.7747C141.295 39.0004 140.314 40.0033 139.115 40.0033C137.916 40.0033 136.935 39.0004 136.935 37.7747C136.935 36.549 137.916 35.5461 139.115 35.5461C140.33 35.562 141.295 36.549 141.295 37.7747Z" fill="#6D6D6D"/>
<path d="M160.869 37.7747C160.869 39.0004 159.888 40.0033 158.689 40.0033C157.49 40.0033 156.509 39.0004 156.509 37.7747C156.509 36.549 157.474 35.5461 158.689 35.5461C159.888 35.562 160.869 36.549 160.869 37.7747Z" fill="#6D6D6D"/>
<path d="M180.427 37.7747C180.427 39.0004 179.446 40.0033 178.247 40.0033C177.048 40.0033 176.067 39.0004 176.067 37.7747C176.067 36.549 177.048 35.5461 178.247 35.5461C179.461 35.562 180.427 36.549 180.427 37.7747Z" fill="#6D6D6D"/>
<path d="M200 37.7747C200 39.0004 199.034 40.0033 197.82 40.0033C196.605 40.0033 195.64 39.0004 195.64 37.7747C195.64 36.549 196.605 35.5461 197.82 35.5461C199.034 35.5461 200 36.549 200 37.7747Z" fill="#6D6D6D"/>
<path d="M4.35999 55.5556C4.35999 56.7813 3.379 57.7841 2.17999 57.7841C0.980992 57.7841 0 56.7972 0 55.5556C0 54.3298 0.965421 53.327 2.17999 53.327C3.379 53.327 4.35999 54.3298 4.35999 55.5556Z" fill="#6D6D6D"/>
<path d="M23.9178 55.5556C23.9178 56.7813 22.9524 57.7841 21.7378 57.7841C20.5388 57.7841 19.5578 56.7972 19.5578 55.5556C19.5578 54.3298 20.5388 53.327 21.7378 53.327C22.9524 53.327 23.9178 54.3298 23.9178 55.5556Z" fill="#6D6D6D"/>
<path d="M43.4758 55.5556C43.4758 56.7813 42.4947 57.7842 41.2957 57.7842C40.0967 57.7842 39.1157 56.7973 39.1157 55.5556C39.1157 54.3299 40.0811 53.327 41.2957 53.327C42.5103 53.327 43.4758 54.3299 43.4758 55.5556Z" fill="#6D6D6D"/>
<path d="M63.0487 55.5556C63.0487 56.7813 62.0833 57.7841 60.8687 57.7841C59.6697 57.7841 58.6887 56.7972 58.6887 55.5556C58.6887 54.3298 59.6697 53.327 60.8687 53.327C62.0677 53.327 63.0487 54.3298 63.0487 55.5556Z" fill="#6D6D6D"/>
<path d="M82.6065 55.5556C82.6065 56.7813 81.6255 57.7841 80.4265 57.7841C79.2275 57.7841 78.2465 56.7972 78.2465 55.5556C78.2465 54.3298 79.2119 53.327 80.4265 53.327C81.6411 53.327 82.6065 54.3298 82.6065 55.5556Z" fill="#6D6D6D"/>
<path d="M102.18 55.5556C102.18 56.7813 101.199 57.7841 100 57.7841C98.8011 57.7841 97.8201 56.7972 97.8201 55.5556C97.8201 54.3298 98.8011 53.327 100 53.327C101.199 53.327 102.18 54.3298 102.18 55.5556Z" fill="#6D6D6D"/>
<path d="M121.737 55.5556C121.737 56.7813 120.756 57.7841 119.557 57.7841C118.358 57.7841 117.377 56.7972 117.377 55.5556C117.377 54.3298 118.343 53.327 119.557 53.327C120.756 53.327 121.737 54.3298 121.737 55.5556Z" fill="#6D6D6D"/>
<path d="M141.295 55.5556C141.295 56.7813 140.314 57.7841 139.115 57.7841C137.916 57.7841 136.935 56.7972 136.935 55.5556C136.935 54.3298 137.916 53.327 139.115 53.327C140.33 53.327 141.295 54.3298 141.295 55.5556Z" fill="#6D6D6D"/>
<path d="M160.869 55.5556C160.869 56.7813 159.888 57.7841 158.689 57.7841C157.49 57.7841 156.509 56.7972 156.509 55.5556C156.509 54.3298 157.474 53.327 158.689 53.327C159.888 53.327 160.869 54.3298 160.869 55.5556Z" fill="#6D6D6D"/>
<path d="M180.427 55.5556C180.427 56.7813 179.446 57.7841 178.247 57.7841C177.048 57.7841 176.067 56.7972 176.067 55.5556C176.067 54.3298 177.048 53.327 178.247 53.327C179.461 53.327 180.427 54.3298 180.427 55.5556Z" fill="#6D6D6D"/>
<path d="M200 55.5556C200 56.7813 199.034 57.7842 197.82 57.7842C196.605 57.7842 195.64 56.7973 195.64 55.5556C195.64 54.3299 196.605 53.327 197.82 53.327C199.034 53.327 200 54.3299 200 55.5556Z" fill="#6D6D6D"/>
<path d="M2.17999 75.5648C3.38398 75.5648 4.35999 74.5671 4.35999 73.3362C4.35999 72.1054 3.38398 71.1077 2.17999 71.1077C0.976012 71.1077 0 72.1054 0 73.3362C0 74.5671 0.976012 75.5648 2.17999 75.5648Z" fill="#6D6D6D"/>
<path d="M21.7378 75.5648C22.9418 75.5648 23.9178 74.5671 23.9178 73.3362C23.9178 72.1054 22.9418 71.1077 21.7378 71.1077C20.5338 71.1077 19.5578 72.1054 19.5578 73.3362C19.5578 74.5671 20.5338 75.5648 21.7378 75.5648Z" fill="#6D6D6D"/>
<path d="M41.3109 75.5648C42.5149 75.5648 43.4909 74.5671 43.4909 73.3362C43.4909 72.1054 42.5149 71.1077 41.3109 71.1077C40.1069 71.1077 39.1309 72.1054 39.1309 73.3362C39.1309 74.5671 40.1069 75.5648 41.3109 75.5648Z" fill="#6D6D6D"/>
<path d="M60.8687 75.5648C62.0727 75.5648 63.0487 74.5671 63.0487 73.3362C63.0487 72.1054 62.0727 71.1077 60.8687 71.1077C59.6647 71.1077 58.6887 72.1054 58.6887 73.3362C58.6887 74.5671 59.6647 75.5648 60.8687 75.5648Z" fill="#6D6D6D"/>
<path d="M80.442 75.5648C81.6459 75.5648 82.622 74.5671 82.622 73.3363C82.622 72.1054 81.6459 71.1077 80.442 71.1077C79.238 71.1077 78.262 72.1054 78.262 73.3363C78.262 74.5671 79.238 75.5648 80.442 75.5648Z" fill="#6D6D6D"/>
<path d="M102.18 73.3362C102.18 74.562 101.199 75.5648 100 75.5648C98.8011 75.5648 97.8201 74.5779 97.8201 73.3362C97.8201 72.0946 98.8011 71.1077 100 71.1077C101.199 71.1077 102.18 72.1105 102.18 73.3362Z" fill="#6D6D6D"/>
<path d="M119.557 75.5648C120.761 75.5648 121.737 74.5671 121.737 73.3362C121.737 72.1054 120.761 71.1077 119.557 71.1077C118.353 71.1077 117.377 72.1054 117.377 73.3362C117.377 74.5671 118.353 75.5648 119.557 75.5648Z" fill="#6D6D6D"/>
<path d="M141.295 73.3362C141.295 74.562 140.314 75.5648 139.115 75.5648C137.916 75.5648 136.935 74.5779 136.935 73.3362C136.935 72.0946 137.916 71.1077 139.115 71.1077C140.33 71.1077 141.295 72.1105 141.295 73.3362Z" fill="#6D6D6D"/>
<path d="M158.689 75.5648C159.893 75.5648 160.869 74.5671 160.869 73.3362C160.869 72.1054 159.893 71.1077 158.689 71.1077C157.485 71.1077 156.509 72.1054 156.509 73.3362C156.509 74.5671 157.485 75.5648 158.689 75.5648Z" fill="#6D6D6D"/>
<path d="M180.427 73.3362C180.427 74.562 179.446 75.5648 178.247 75.5648C177.048 75.5648 176.067 74.5779 176.067 73.3362C176.067 72.0946 177.048 71.1077 178.247 71.1077C179.461 71.1077 180.427 72.1105 180.427 73.3362Z" fill="#6D6D6D"/>
<path d="M197.82 75.5648C199.024 75.5648 200 74.5671 200 73.3363C200 72.1054 199.024 71.1077 197.82 71.1077C196.616 71.1077 195.64 72.1054 195.64 73.3363C195.64 74.5671 196.616 75.5648 197.82 75.5648Z" fill="#6D6D6D"/>
<path d="M2.17999 93.3461C3.38398 93.3461 4.35999 92.3483 4.35999 91.1175C4.35999 89.8867 3.38398 88.8889 2.17999 88.8889C0.976012 88.8889 0 89.8867 0 91.1175C0 92.3483 0.976012 93.3461 2.17999 93.3461Z" fill="#6D6D6D"/>
<path d="M21.7378 93.3461C22.9418 93.3461 23.9178 92.3483 23.9178 91.1175C23.9178 89.8867 22.9418 88.8889 21.7378 88.8889C20.5338 88.8889 19.5578 89.8867 19.5578 91.1175C19.5578 92.3483 20.5338 93.3461 21.7378 93.3461Z" fill="#6D6D6D"/>
<path d="M41.3109 93.3461C42.5149 93.3461 43.4909 92.3483 43.4909 91.1175C43.4909 89.8867 42.5149 88.8889 41.3109 88.8889C40.1069 88.8889 39.1309 89.8867 39.1309 91.1175C39.1309 92.3483 40.1069 93.3461 41.3109 93.3461Z" fill="#6D6D6D"/>
<path d="M60.8687 93.3461C62.0727 93.3461 63.0487 92.3483 63.0487 91.1175C63.0487 89.8867 62.0727 88.8889 60.8687 88.8889C59.6647 88.8889 58.6887 89.8867 58.6887 91.1175C58.6887 92.3483 59.6647 93.3461 60.8687 93.3461Z" fill="#6D6D6D"/>
<path d="M80.442 93.346C81.6459 93.346 82.622 92.3483 82.622 91.1174C82.622 89.8866 81.6459 88.8888 80.442 88.8888C79.238 88.8888 78.262 89.8866 78.262 91.1174C78.262 92.3483 79.238 93.346 80.442 93.346Z" fill="#6D6D6D"/>
<path d="M102.18 91.1175C102.18 92.3432 101.199 93.3461 100 93.3461C98.8011 93.3461 97.8201 92.3432 97.8201 91.1175C97.8201 89.8918 98.8011 88.8889 100 88.8889C101.199 88.8889 102.18 89.8759 102.18 91.1175Z" fill="#6D6D6D"/>
<path d="M119.557 93.3461C120.761 93.3461 121.737 92.3483 121.737 91.1175C121.737 89.8867 120.761 88.8889 119.557 88.8889C118.353 88.8889 117.377 89.8867 117.377 91.1175C117.377 92.3483 118.353 93.3461 119.557 93.3461Z" fill="#6D6D6D"/>
<path d="M141.295 91.1175C141.295 92.3432 140.314 93.3461 139.115 93.3461C137.916 93.3461 136.935 92.3432 136.935 91.1175C136.935 89.8918 137.916 88.8889 139.115 88.8889C140.33 88.8889 141.295 89.8759 141.295 91.1175Z" fill="#6D6D6D"/>
<path d="M158.689 93.3461C159.893 93.3461 160.869 92.3483 160.869 91.1175C160.869 89.8867 159.893 88.8889 158.689 88.8889C157.485 88.8889 156.509 89.8867 156.509 91.1175C156.509 92.3483 157.485 93.3461 158.689 93.3461Z" fill="#6D6D6D"/>
<path d="M180.427 91.1175C180.427 92.3432 179.446 93.3461 178.247 93.3461C177.048 93.3461 176.067 92.3432 176.067 91.1175C176.067 89.8918 177.048 88.8889 178.247 88.8889C179.461 88.8889 180.427 89.8759 180.427 91.1175Z" fill="#6D6D6D"/>
<path d="M197.82 93.346C199.024 93.346 200 92.3483 200 91.1174C200 89.8866 199.024 88.8888 197.82 88.8888C196.616 88.8888 195.64 89.8866 195.64 91.1174C195.64 92.3483 196.616 93.346 197.82 93.346Z" fill="#6D6D6D"/>
<path d="M2.17999 111.111C3.38398 111.111 4.35999 110.113 4.35999 108.883C4.35999 107.652 3.38398 106.654 2.17999 106.654C0.976012 106.654 0 107.652 0 108.883C0 110.113 0.976012 111.111 2.17999 111.111Z" fill="#6D6D6D"/>
<path d="M21.7379 111.111C22.9418 111.111 23.9179 110.113 23.9179 108.883C23.9179 107.652 22.9418 106.654 21.7379 106.654C20.5339 106.654 19.5579 107.652 19.5579 108.883C19.5579 110.113 20.5339 111.111 21.7379 111.111Z" fill="#6D6D6D"/>
<path d="M41.3109 111.111C42.5148 111.111 43.4908 110.113 43.4908 108.883C43.4908 107.652 42.5148 106.654 41.3109 106.654C40.1069 106.654 39.1309 107.652 39.1309 108.883C39.1309 110.113 40.1069 111.111 41.3109 111.111Z" fill="#6D6D6D"/>
<path d="M60.8687 111.111C62.0727 111.111 63.0487 110.113 63.0487 108.883C63.0487 107.652 62.0727 106.654 60.8687 106.654C59.6647 106.654 58.6887 107.652 58.6887 108.883C58.6887 110.113 59.6647 111.111 60.8687 111.111Z" fill="#6D6D6D"/>
<path d="M80.442 111.111C81.6459 111.111 82.622 110.113 82.622 108.883C82.622 107.652 81.6459 106.654 80.442 106.654C79.238 106.654 78.262 107.652 78.262 108.883C78.262 110.113 79.238 111.111 80.442 111.111Z" fill="#6D6D6D"/>
<path d="M102.18 108.883C102.18 110.108 101.199 111.111 100 111.111C98.8011 111.111 97.8201 110.124 97.8201 108.883C97.8201 107.641 98.8011 106.654 100 106.654C101.199 106.67 102.18 107.657 102.18 108.883Z" fill="#6D6D6D"/>
<path d="M119.557 111.111C120.761 111.111 121.737 110.113 121.737 108.883C121.737 107.652 120.761 106.654 119.557 106.654C118.353 106.654 117.377 107.652 117.377 108.883C117.377 110.113 118.353 111.111 119.557 111.111Z" fill="#6D6D6D"/>
<path d="M141.295 108.883C141.295 110.108 140.314 111.111 139.115 111.111C137.916 111.111 136.935 110.124 136.935 108.883C136.935 107.641 137.916 106.654 139.115 106.654C140.33 106.67 141.295 107.657 141.295 108.883Z" fill="#6D6D6D"/>
<path d="M158.689 111.111C159.893 111.111 160.869 110.113 160.869 108.883C160.869 107.652 159.893 106.654 158.689 106.654C157.485 106.654 156.509 107.652 156.509 108.883C156.509 110.113 157.485 111.111 158.689 111.111Z" fill="#6D6D6D"/>
<path d="M180.427 108.883C180.427 110.108 179.446 111.111 178.247 111.111C177.048 111.111 176.067 110.124 176.067 108.883C176.067 107.641 177.048 106.654 178.247 106.654C179.461 106.67 180.427 107.657 180.427 108.883Z" fill="#6D6D6D"/>
<path d="M197.82 111.111C199.024 111.111 200 110.113 200 108.883C200 107.652 199.024 106.654 197.82 106.654C196.616 106.654 195.64 107.652 195.64 108.883C195.64 110.113 196.616 111.111 197.82 111.111Z" fill="#6D6D6D"/>
<path d="M4.35999 126.663C4.35999 127.889 3.379 128.892 2.17999 128.892C0.980992 128.892 0 127.905 0 126.663C0 125.437 0.965421 124.435 2.17999 124.435C3.379 124.451 4.35999 125.437 4.35999 126.663Z" fill="#6D6D6D"/>
<path d="M23.9178 126.663C23.9178 127.889 22.9524 128.892 21.7378 128.892C20.5388 128.892 19.5578 127.905 19.5578 126.663C19.5578 125.437 20.5388 124.435 21.7378 124.435C22.9524 124.451 23.9178 125.437 23.9178 126.663Z" fill="#6D6D6D"/>
<path d="M43.4758 126.663C43.4758 127.889 42.4947 128.892 41.2957 128.892C40.0967 128.892 39.1157 127.905 39.1157 126.663C39.1157 125.438 40.0811 124.435 41.2957 124.435C42.5103 124.451 43.4758 125.438 43.4758 126.663Z" fill="#6D6D6D"/>
<path d="M63.0487 126.663C63.0487 127.889 62.0833 128.892 60.8687 128.892C59.6697 128.892 58.6887 127.905 58.6887 126.663C58.6887 125.437 59.6697 124.435 60.8687 124.435C62.0677 124.451 63.0487 125.437 63.0487 126.663Z" fill="#6D6D6D"/>
<path d="M82.6065 126.663C82.6065 127.889 81.6255 128.892 80.4265 128.892C79.2275 128.892 78.2465 127.905 78.2465 126.663C78.2465 125.437 79.2119 124.435 80.4265 124.435C81.6411 124.451 82.6065 125.437 82.6065 126.663Z" fill="#6D6D6D"/>
<path d="M102.18 126.663C102.18 127.889 101.199 128.892 100 128.892C98.8011 128.892 97.8201 127.905 97.8201 126.663C97.8201 125.437 98.8011 124.435 100 124.435C101.199 124.451 102.18 125.437 102.18 126.663Z" fill="#6D6D6D"/>
<path d="M121.737 126.663C121.737 127.889 120.756 128.892 119.557 128.892C118.358 128.892 117.377 127.905 117.377 126.663C117.377 125.437 118.343 124.435 119.557 124.435C120.756 124.451 121.737 125.437 121.737 126.663Z" fill="#6D6D6D"/>
<path d="M141.295 126.663C141.295 127.889 140.314 128.892 139.115 128.892C137.916 128.892 136.935 127.905 136.935 126.663C136.935 125.437 137.916 124.435 139.115 124.435C140.33 124.451 141.295 125.437 141.295 126.663Z" fill="#6D6D6D"/>
<path d="M160.869 126.663C160.869 127.889 159.888 128.892 158.689 128.892C157.49 128.892 156.509 127.905 156.509 126.663C156.509 125.437 157.474 124.435 158.689 124.435C159.888 124.451 160.869 125.437 160.869 126.663Z" fill="#6D6D6D"/>
<path d="M180.427 126.663C180.427 127.889 179.446 128.892 178.247 128.892C177.048 128.892 176.067 127.905 176.067 126.663C176.067 125.437 177.048 124.435 178.247 124.435C179.461 124.451 180.427 125.437 180.427 126.663Z" fill="#6D6D6D"/>
<path d="M200 126.663C200 127.889 199.034 128.892 197.82 128.892C196.605 128.892 195.64 127.905 195.64 126.663C195.64 125.438 196.605 124.435 197.82 124.435C199.034 124.435 200 125.438 200 126.663Z" fill="#6D6D6D"/>
<path d="M4.35999 144.444C4.35999 145.67 3.379 146.673 2.17999 146.673C0.980992 146.673 0 145.686 0 144.444C0 143.219 0.965421 142.216 2.17999 142.216C3.379 142.216 4.35999 143.219 4.35999 144.444Z" fill="#6D6D6D"/>
<path d="M23.9178 144.444C23.9178 145.67 22.9524 146.673 21.7378 146.673C20.5388 146.673 19.5578 145.686 19.5578 144.444C19.5578 143.219 20.5388 142.216 21.7378 142.216C22.9524 142.216 23.9178 143.219 23.9178 144.444Z" fill="#6D6D6D"/>
<path d="M43.4758 144.444C43.4758 145.67 42.4947 146.673 41.2957 146.673C40.0967 146.673 39.1157 145.686 39.1157 144.444C39.1157 143.219 40.0811 142.216 41.2957 142.216C42.5103 142.216 43.4758 143.219 43.4758 144.444Z" fill="#6D6D6D"/>
<path d="M63.0487 144.444C63.0487 145.67 62.0833 146.673 60.8687 146.673C59.6697 146.673 58.6887 145.686 58.6887 144.444C58.6887 143.219 59.6697 142.216 60.8687 142.216C62.0677 142.216 63.0487 143.219 63.0487 144.444Z" fill="#6D6D6D"/>
<path d="M82.6065 144.444C82.6065 145.67 81.6255 146.673 80.4265 146.673C79.2275 146.673 78.2465 145.686 78.2465 144.444C78.2465 143.219 79.2119 142.216 80.4265 142.216C81.6411 142.216 82.6065 143.219 82.6065 144.444Z" fill="#6D6D6D"/>
<path d="M102.18 144.444C102.18 145.67 101.199 146.673 100 146.673C98.8011 146.673 97.8201 145.686 97.8201 144.444C97.8201 143.219 98.8011 142.216 100 142.216C101.199 142.216 102.18 143.219 102.18 144.444Z" fill="#6D6D6D"/>
<path d="M121.737 144.444C121.737 145.67 120.756 146.673 119.557 146.673C118.358 146.673 117.377 145.686 117.377 144.444C117.377 143.219 118.343 142.216 119.557 142.216C120.756 142.216 121.737 143.219 121.737 144.444Z" fill="#6D6D6D"/>
<path d="M141.295 144.444C141.295 145.67 140.314 146.673 139.115 146.673C137.916 146.673 136.935 145.686 136.935 144.444C136.935 143.219 137.916 142.216 139.115 142.216C140.33 142.216 141.295 143.219 141.295 144.444Z" fill="#6D6D6D"/>
<path d="M160.869 144.444C160.869 145.67 159.888 146.673 158.689 146.673C157.49 146.673 156.509 145.686 156.509 144.444C156.509 143.219 157.474 142.216 158.689 142.216C159.888 142.216 160.869 143.219 160.869 144.444Z" fill="#6D6D6D"/>
<path d="M180.427 144.444C180.427 145.67 179.446 146.673 178.247 146.673C177.048 146.673 176.067 145.686 176.067 144.444C176.067 143.219 177.048 142.216 178.247 142.216C179.461 142.216 180.427 143.219 180.427 144.444Z" fill="#6D6D6D"/>
<path d="M200 144.444C200 145.67 199.034 146.673 197.82 146.673C196.605 146.673 195.64 145.686 195.64 144.444C195.64 143.219 196.605 142.216 197.82 142.216C199.034 142.216 200 143.219 200 144.444Z" fill="#6D6D6D"/>
<path d="M2.17999 164.454C3.38398 164.454 4.35999 163.456 4.35999 162.225C4.35999 160.995 3.38398 159.997 2.17999 159.997C0.976012 159.997 0 160.995 0 162.225C0 163.456 0.976012 164.454 2.17999 164.454Z" fill="#6D6D6D"/>
<path d="M21.7378 164.454C22.9418 164.454 23.9178 163.456 23.9178 162.225C23.9178 160.995 22.9418 159.997 21.7378 159.997C20.5338 159.997 19.5578 160.995 19.5578 162.225C19.5578 163.456 20.5338 164.454 21.7378 164.454Z" fill="#6D6D6D"/>
<path d="M41.3109 164.454C42.5149 164.454 43.4909 163.456 43.4909 162.225C43.4909 160.995 42.5149 159.997 41.3109 159.997C40.1069 159.997 39.1309 160.995 39.1309 162.225C39.1309 163.456 40.1069 164.454 41.3109 164.454Z" fill="#6D6D6D"/>
<path d="M60.8687 164.454C62.0727 164.454 63.0487 163.456 63.0487 162.225C63.0487 160.995 62.0727 159.997 60.8687 159.997C59.6647 159.997 58.6887 160.995 58.6887 162.225C58.6887 163.456 59.6647 164.454 60.8687 164.454Z" fill="#6D6D6D"/>
<path d="M80.442 164.454C81.6459 164.454 82.622 163.456 82.622 162.225C82.622 160.994 81.6459 159.997 80.442 159.997C79.238 159.997 78.262 160.994 78.262 162.225C78.262 163.456 79.238 164.454 80.442 164.454Z" fill="#6D6D6D"/>
<path d="M102.18 162.225C102.18 163.451 101.199 164.454 100 164.454C98.8011 164.454 97.8201 163.467 97.8201 162.225C97.8201 160.984 98.8011 159.997 100 159.997C101.199 159.997 102.18 161 102.18 162.225Z" fill="#6D6D6D"/>
<path d="M119.557 164.454C120.761 164.454 121.737 163.456 121.737 162.225C121.737 160.995 120.761 159.997 119.557 159.997C118.353 159.997 117.377 160.995 117.377 162.225C117.377 163.456 118.353 164.454 119.557 164.454Z" fill="#6D6D6D"/>
<path d="M141.295 162.225C141.295 163.451 140.314 164.454 139.115 164.454C137.916 164.454 136.935 163.467 136.935 162.225C136.935 160.984 137.916 159.997 139.115 159.997C140.33 159.997 141.295 161 141.295 162.225Z" fill="#6D6D6D"/>
<path d="M158.689 164.454C159.893 164.454 160.869 163.456 160.869 162.225C160.869 160.995 159.893 159.997 158.689 159.997C157.485 159.997 156.509 160.995 156.509 162.225C156.509 163.456 157.485 164.454 158.689 164.454Z" fill="#6D6D6D"/>
<path d="M180.427 162.225C180.427 163.451 179.446 164.454 178.247 164.454C177.048 164.454 176.067 163.467 176.067 162.225C176.067 160.984 177.048 159.997 178.247 159.997C179.461 159.997 180.427 161 180.427 162.225Z" fill="#6D6D6D"/>
<path d="M197.82 164.454C199.024 164.454 200 163.456 200 162.225C200 160.994 199.024 159.997 197.82 159.997C196.616 159.997 195.64 160.994 195.64 162.225C195.64 163.456 196.616 164.454 197.82 164.454Z" fill="#6D6D6D"/>
<path d="M4.35999 179.99C4.35999 181.216 3.379 182.219 2.17999 182.219C0.980992 182.219 0 181.216 0 179.99C0 178.765 0.965421 177.762 2.17999 177.762C3.379 177.778 4.35999 178.765 4.35999 179.99Z" fill="#6D6D6D"/>
<path d="M23.9179 179.99C23.9179 181.216 22.9524 182.219 21.7379 182.219C20.5389 182.219 19.5579 181.216 19.5579 179.99C19.5579 178.765 20.5389 177.762 21.7379 177.762C22.9524 177.778 23.9179 178.765 23.9179 179.99Z" fill="#6D6D6D"/>
<path d="M43.4758 179.99C43.4758 181.216 42.4947 182.219 41.2957 182.219C40.0967 182.219 39.1157 181.216 39.1157 179.99C39.1157 178.765 40.0811 177.762 41.2957 177.762C42.5103 177.778 43.4758 178.765 43.4758 179.99Z" fill="#6D6D6D"/>
<path d="M63.0487 179.99C63.0487 181.216 62.0833 182.219 60.8687 182.219C59.6697 182.219 58.6887 181.216 58.6887 179.99C58.6887 178.765 59.6697 177.762 60.8687 177.762C62.0677 177.778 63.0487 178.765 63.0487 179.99Z" fill="#6D6D6D"/>
<path d="M82.6066 179.99C82.6066 181.216 81.6256 182.219 80.4266 182.219C79.2276 182.219 78.2466 181.216 78.2466 179.99C78.2466 178.765 79.212 177.762 80.4266 177.762C81.6411 177.778 82.6066 178.765 82.6066 179.99Z" fill="#6D6D6D"/>
<path d="M102.18 179.99C102.18 181.216 101.199 182.219 100 182.219C98.8011 182.219 97.8201 181.216 97.8201 179.99C97.8201 178.765 98.8011 177.762 100 177.762C101.199 177.778 102.18 178.765 102.18 179.99Z" fill="#6D6D6D"/>
<path d="M121.737 179.99C121.737 181.216 120.756 182.219 119.557 182.219C118.358 182.219 117.377 181.216 117.377 179.99C117.377 178.765 118.343 177.762 119.557 177.762C120.756 177.778 121.737 178.765 121.737 179.99Z" fill="#6D6D6D"/>
<path d="M141.295 179.99C141.295 181.216 140.314 182.219 139.115 182.219C137.916 182.219 136.935 181.216 136.935 179.99C136.935 178.765 137.916 177.762 139.115 177.762C140.33 177.778 141.295 178.765 141.295 179.99Z" fill="#6D6D6D"/>
<path d="M160.869 179.99C160.869 181.216 159.888 182.219 158.689 182.219C157.49 182.219 156.509 181.216 156.509 179.99C156.509 178.765 157.474 177.762 158.689 177.762C159.888 177.778 160.869 178.765 160.869 179.99Z" fill="#6D6D6D"/>
<path d="M180.427 179.99C180.427 181.216 179.446 182.219 178.247 182.219C177.048 182.219 176.067 181.216 176.067 179.99C176.067 178.765 177.048 177.762 178.247 177.762C179.461 177.778 180.427 178.765 180.427 179.99Z" fill="#6D6D6D"/>
<path d="M200 179.99C200 181.216 199.034 182.219 197.82 182.219C196.605 182.219 195.64 181.216 195.64 179.99C195.64 178.765 196.605 177.762 197.82 177.762C199.034 177.762 200 178.765 200 179.99Z" fill="#6D6D6D"/>
<path d="M2.17999 200C3.38398 200 4.35999 199.002 4.35999 197.771C4.35999 196.541 3.38398 195.543 2.17999 195.543C0.976012 195.543 0 196.541 0 197.771C0 199.002 0.976012 200 2.17999 200Z" fill="#6D6D6D"/>
<path d="M21.7378 200C22.9418 200 23.9178 199.002 23.9178 197.771C23.9178 196.541 22.9418 195.543 21.7378 195.543C20.5338 195.543 19.5578 196.541 19.5578 197.771C19.5578 199.002 20.5338 200 21.7378 200Z" fill="#6D6D6D"/>
<path d="M41.3109 200C42.5149 200 43.4909 199.002 43.4909 197.771C43.4909 196.541 42.5149 195.543 41.3109 195.543C40.1069 195.543 39.1309 196.541 39.1309 197.771C39.1309 199.002 40.1069 200 41.3109 200Z" fill="#6D6D6D"/>
<path d="M60.8687 200C62.0727 200 63.0487 199.002 63.0487 197.771C63.0487 196.541 62.0727 195.543 60.8687 195.543C59.6647 195.543 58.6887 196.541 58.6887 197.771C58.6887 199.002 59.6647 200 60.8687 200Z" fill="#6D6D6D"/>
<path d="M80.442 200C81.6459 200 82.622 199.002 82.622 197.771C82.622 196.541 81.6459 195.543 80.442 195.543C79.238 195.543 78.262 196.541 78.262 197.771C78.262 199.002 79.238 200 80.442 200Z" fill="#6D6D6D"/>
<path d="M102.18 197.771C102.18 198.997 101.199 200 100 200C98.8011 200 97.8201 198.997 97.8201 197.771C97.8201 196.546 98.8011 195.543 100 195.543C101.199 195.559 102.18 196.546 102.18 197.771Z" fill="#6D6D6D"/>
<path d="M119.557 200C120.761 200 121.737 199.002 121.737 197.771C121.737 196.541 120.761 195.543 119.557 195.543C118.353 195.543 117.377 196.541 117.377 197.771C117.377 199.002 118.353 200 119.557 200Z" fill="#6D6D6D"/>
<path d="M141.295 197.771C141.295 198.997 140.314 200 139.115 200C137.916 200 136.935 198.997 136.935 197.771C136.935 196.546 137.916 195.543 139.115 195.543C140.33 195.559 141.295 196.546 141.295 197.771Z" fill="#6D6D6D"/>
<path d="M158.689 200C159.893 200 160.869 199.002 160.869 197.771C160.869 196.541 159.893 195.543 158.689 195.543C157.485 195.543 156.509 196.541 156.509 197.771C156.509 199.002 157.485 200 158.689 200Z" fill="#6D6D6D"/>
<path d="M180.427 197.771C180.427 198.997 179.446 200 178.247 200C177.048 200 176.067 198.997 176.067 197.771C176.067 196.546 177.048 195.543 178.247 195.543C179.461 195.559 180.427 196.546 180.427 197.771Z" fill="#6D6D6D"/>
<path d="M197.82 200C199.024 200 200 199.002 200 197.771C200 196.541 199.024 195.543 197.82 195.543C196.616 195.543 195.64 196.541 195.64 197.771C195.64 199.002 196.616 200 197.82 200Z" fill="#6D6D6D"/>
</g>
</svg>
