<svg width="30" height="23" viewBox="0 0 30 23" fill="none" xmlns="http://www.w3.org/2000/svg">
<path d="M0 1.875C0 0.839467 0.839466 0 1.875 0H28.125C29.1605 0 30 0.839467 30 1.875V1.875C30 2.91053 29.1605 3.75 28.125 3.75H1.875C0.839466 3.75 0 2.91053 0 1.875V1.875ZM7.5 11.25C7.5 10.2145 8.33947 9.375 9.375 9.375H28.125C29.1605 9.375 30 10.2145 30 11.25V11.25C30 12.2855 29.1605 13.125 28.125 13.125H9.375C8.33947 13.125 7.5 12.2855 7.5 11.25V11.25ZM16.875 20.625C16.875 19.5895 17.7145 18.75 18.75 18.75H28.125C29.1605 18.75 30 19.5895 30 20.625V20.625C30 21.6605 29.1605 22.5 28.125 22.5H18.75C17.7145 22.5 16.875 21.6605 16.875 20.625V20.625Z" fill="#2D2D2D"/>
</svg>
