<svg width="75" height="101" viewBox="0 0 75 101" fill="none" xmlns="http://www.w3.org/2000/svg">
<path d="M29.2714 68.1915L29.2323 68.1525L22.8273 62.509L29.2323 56.8656C29.9353 56.2407 30.0134 55.1472 29.3885 54.4442L29.3495 54.4051L25.9517 50.773C25.2878 50.0701 24.1942 50.0505 23.5303 50.6949L12.263 61.2593C11.5405 61.9427 11.5405 63.0949 12.263 63.7588L23.5303 74.3231C23.8428 74.616 24.2724 74.7918 24.702 74.7918C25.1706 74.7918 25.6393 74.5965 25.9517 74.245L29.3495 70.6129C29.9939 69.9295 29.9548 68.8359 29.2714 68.1915V68.1915ZM72.2317 19.1386L55.8482 2.75508C54.0908 0.997608 51.7084 0.00170898 49.2284 0.00170898H9.37292C4.19815 0.0212364 -0.000244141 4.21964 -0.000244141 9.39441V90.6285C-0.000244141 95.8033 4.19815 100.002 9.37292 100.002H65.6119C70.7867 100.002 74.9851 95.8033 74.9851 90.6285V25.7779C74.9851 23.2979 73.9892 20.8961 72.2317 19.1386V19.1386ZM49.99 10.156L64.8504 25.0164H49.99V10.156ZM65.6119 90.6285H9.37292V9.39441H40.6168V29.7029C40.6168 32.3001 42.7063 34.3895 45.3034 34.3895H65.6119V90.6285ZM40.9293 41.81C40.0115 41.5366 39.0742 42.0638 38.8008 42.9816L28.1193 79.7127C27.8459 80.6305 28.3731 81.5873 29.2909 81.8412L34.0556 83.2276C34.9734 83.501 35.9302 82.9543 36.1841 82.056L46.8656 45.3054C47.139 44.3876 46.6117 43.4307 45.694 43.1769L40.9293 41.81ZM45.7135 56.8266L45.7525 56.8656L52.1575 62.509L45.7525 68.1525C45.0495 68.7773 44.9714 69.8709 45.5963 70.5739L45.6354 70.6129L49.0331 74.245C49.6776 74.9285 50.7711 74.9675 51.4545 74.3231L62.7219 63.7588C63.4444 63.0753 63.4444 61.9232 62.7219 61.2593L51.4545 50.6949C50.7711 50.0505 49.6776 50.0701 49.0331 50.773L45.6354 54.4051C44.991 55.0886 45.03 56.1821 45.7135 56.8266V56.8266Z" fill="#2d2d2d"/>
</svg>
