<svg width="130" height="130" viewBox="0 0 130 130" fill="none" xmlns="http://www.w3.org/2000/svg">
<g filter="url(#filter0_d_147_245)">
<path d="M49.1297 24C44.0722 24 40 28.0722 40 33.1297V64.8703C40 69.9277 44.0722 74 49.1297 74H66.3328V54.4531H61.1641V47.4156H66.3328V41.4031C66.3328 36.6794 69.3868 32.3422 76.4219 32.3422C79.2703 32.3422 81.3766 32.6156 81.3766 32.6156L81.2109 39.1875C81.2109 39.1875 79.0628 39.1672 76.7188 39.1672C74.1818 39.1672 73.775 40.3361 73.775 42.2766V47.4157H81.4125L81.0797 54.4531H73.775V74H80.8703C85.9277 74 90 69.9278 90 64.8703V33.1297C90 28.0723 85.9277 24 80.8703 24H49.1297L49.1297 24Z" fill="#2D2D2D"/>
</g>
<defs>
<filter id="filter0_d_147_245" x="0" y="0" width="130" height="130" filterUnits="userSpaceOnUse" color-interpolation-filters="sRGB">
<feFlood flood-opacity="0" result="BackgroundImageFix"/>
<feColorMatrix in="SourceAlpha" type="matrix" values="0 0 0 0 0 0 0 0 0 0 0 0 0 0 0 0 0 0 127 0" result="hardAlpha"/>
<feOffset dy="16"/>
<feGaussianBlur stdDeviation="20"/>
<feColorMatrix type="matrix" values="0 0 0 0 0.286137 0 0 0 0 0.390985 0 0 0 0 0.495833 0 0 0 0.2 0"/>
<feBlend mode="normal" in2="BackgroundImageFix" result="effect1_dropShadow_147_245"/>
<feBlend mode="normal" in="SourceGraphic" in2="effect1_dropShadow_147_245" result="shape"/>
</filter>
</defs>
</svg>
