<svg width="75" height="60" viewBox="0 0 75 60" fill="none" xmlns="http://www.w3.org/2000/svg">
<path d="M33.7343 17.5591C33.8656 18.3708 33.9372 19.2064 33.9372 19.9465C33.9372 20.9014 33.8656 21.737 33.7343 22.5487L36.3843 24.9122C37.2198 25.6643 37.566 26.7505 37.1243 27.8964C36.8498 28.4217 36.5514 29.1498 36.2171 29.7467L35.8471 30.3913C35.3816 30.9881 35.0951 31.5611 34.6773 32.1221C33.9969 33.0293 32.8032 33.3277 31.7289 32.9696L28.3507 31.8595C27.0735 32.9219 25.6172 33.7694 24.0296 34.3662L23.206 37.8279C23.0747 38.938 22.2152 39.8214 21.0931 39.9646C20.2934 40.0601 19.4817 40.1079 18.658 40.1079C17.8344 40.1079 17.0227 40.0601 16.2229 39.9646C15.1008 39.8214 14.1339 38.938 14.0026 37.8279L13.179 34.3662C11.6988 33.7694 10.2425 32.9219 8.95932 31.8595L5.59073 32.9696C4.51761 33.3277 3.32154 33.0293 2.64113 32.1221C2.21857 31.5611 1.82465 30.9762 1.46177 30.3793L1.10128 29.7467C0.76824 29.1498 0.465283 28.5291 0.194555 27.8964C-0.247586 26.7505 0.0911817 25.6643 0.934163 24.9122L3.58176 22.5487C3.44807 21.737 3.2714 20.9014 3.2714 19.9465C3.2714 19.2064 3.44807 18.3708 3.58176 17.5591L0.934163 15.1956C0.0911817 14.3362 -0.247586 13.2499 0.194555 12.2114C0.465283 11.4713 0.76824 10.9568 1.10009 10.3564L1.46297 9.72974C1.82465 9.12692 2.21857 8.54441 2.64113 7.98457C3.32154 7.08333 4.51761 6.78372 5.59073 7.13705L8.95932 8.24718C10.2425 7.19196 11.6988 6.34206 13.179 5.7476L14.0026 2.27755C14.1339 1.16981 15.1008 0.282904 16.2229 0.146943C17.0309 0.0489404 17.8441 -0.00013002 18.658 2.58725e-07C19.4817 2.58725e-07 20.2934 0.0498963 21.0931 0.146824C22.2152 0.282904 23.0747 1.16981 23.206 2.27755L24.0296 5.7476C25.6172 6.34206 27.0735 7.19196 28.3507 8.24718L31.7289 7.13705C32.8032 6.78372 33.9969 7.08333 34.6773 7.98457C35.0951 8.54202 35.3816 9.12215 35.8471 9.72138L36.2171 10.3648C36.5514 10.9628 36.8498 11.5788 37.1243 12.2114C37.566 13.2499 37.2198 14.3362 36.3843 15.1956L33.7343 17.5591V17.5591ZM18.658 14.2168C15.4947 14.2168 12.9283 16.8907 12.9283 19.9465C12.9283 23.2172 15.4947 25.6762 18.658 25.6762C21.8213 25.6762 24.3877 23.2172 24.3877 19.9465C24.3877 16.8907 21.8213 14.2168 18.658 14.2168ZM57.4409 56.1391C56.6292 56.2704 55.7936 56.342 54.9461 56.342C54.0986 56.342 53.263 56.2704 52.4513 56.1391L50.0878 58.789C49.2283 59.6246 48.1421 59.9708 47.1036 59.5291C46.4709 59.2546 45.8502 58.9562 45.2533 58.6219L44.6088 58.2519C44.0119 57.7863 43.4389 57.4999 42.8779 57.0821C41.9707 56.4017 41.6723 55.208 42.0304 54.1337L43.1405 50.7555C42.0781 49.4783 41.2306 48.022 40.6338 46.4344L37.1721 45.6108C36.062 45.4794 35.1786 44.62 35.0354 43.4979C34.9399 42.6982 34.8921 41.8864 34.8921 41.0628C34.8921 40.2392 34.9399 39.4275 35.0354 38.6277C35.1786 37.5056 36.062 36.5387 37.1721 36.4074L40.6338 35.5838C41.2306 34.1036 42.0781 32.6473 43.1405 31.3701L42.0304 27.9919C41.6723 26.9176 41.9707 25.7239 42.8779 25.0435C43.4389 24.6257 44.0238 24.1244 44.6207 23.8618L45.2533 23.5037C45.8502 23.1694 46.3635 22.871 47.1036 22.5965C48.1421 22.1548 49.2283 22.501 50.0878 23.3366L52.4513 25.9865C53.263 25.8552 54.0986 25.7836 54.9461 25.7836C55.7936 25.7836 56.6292 25.8552 57.4409 25.9865L59.8044 23.3366C60.5564 22.501 61.6427 22.1548 62.7886 22.5965C63.4212 22.871 64.042 23.1694 64.6388 23.5037L65.2715 23.8618C65.8683 24.1244 66.4532 24.6257 67.0142 25.0435C67.9214 25.7239 68.2199 26.9176 67.8618 27.9919L66.7516 31.3701C67.814 32.6473 68.6615 34.1036 69.2584 35.5838L72.7201 36.4074C73.8302 36.5387 74.7135 37.5056 74.8568 38.6277C74.9523 39.4275 75 40.2392 75 41.0628C75 41.8864 74.9523 42.6982 74.8568 43.4979C74.7135 44.62 73.8302 45.4794 72.7201 45.6108L69.2584 46.4344C68.6615 48.022 67.814 49.4783 66.7516 50.7555L67.8618 54.1337C68.2199 55.208 67.9214 56.4017 67.0142 57.0821C66.4532 57.4999 65.8802 57.7863 65.2834 58.2519L64.6388 58.6219C64.042 58.9562 63.3138 59.2546 62.7886 59.5291C61.6427 59.9708 60.5564 59.6246 59.8044 58.789L57.4409 56.1391V56.1391ZM60.6758 41.0628C60.6758 37.8995 58.1093 35.3331 54.9461 35.3331C51.7828 35.3331 49.2164 37.8995 49.2164 41.0628C49.2164 44.2261 51.7828 46.7925 54.9461 46.7925C58.1093 46.7925 60.6758 44.2261 60.6758 41.0628Z" fill="#2D2D2D"/>
</svg>
