<svg width="96" height="87" viewBox="0 0 96 87" fill="none" xmlns="http://www.w3.org/2000/svg">
<path d="M21.7685 16.6894C28.1482 11.3317 36.0234 8.06919 44.3229 7.34562V15.5729C44.3229 16.526 44.7015 17.4401 45.3755 18.1141C46.0495 18.788 46.9635 19.1667 47.9167 19.1667C48.8698 19.1667 49.7839 18.788 50.4578 18.1141C51.1318 17.4401 51.5104 16.526 51.5104 15.5729V7.34562C61.2384 8.20966 70.3323 12.5396 77.1353 19.5467C83.9383 26.5538 87.9977 35.7716 88.574 45.5208H80.2604C79.3073 45.5208 78.3932 45.8995 77.7192 46.5734C77.0453 47.2474 76.6667 48.1615 76.6667 49.1146C76.6667 50.0677 77.0453 50.9818 77.7192 51.6557C78.3932 52.3297 79.3073 52.7083 80.2604 52.7083H88.3775C87.1317 63.7867 81.559 73.0633 73.1975 79.8675C72.4579 80.4699 71.9878 81.3414 71.8908 82.2903C71.7937 83.2392 72.0776 84.1879 72.68 84.9275C73.2824 85.6671 74.1539 86.1372 75.1028 86.2342C76.0517 86.3313 77.0004 86.0474 77.74 85.445C88.4063 76.7577 95.3254 64.3904 95.8046 49.5794C95.8365 49.3315 95.843 49.081 95.8237 48.8319L95.8333 47.9167C95.8333 21.4523 74.381 0 47.9167 0C21.4523 0 0 21.4523 0 47.9167C0 63.4992 7.29771 76.4462 18.0646 85.4162C18.7995 85.9994 19.7334 86.272 20.6666 86.1759C21.5999 86.0797 22.4585 85.6224 23.0591 84.9017C23.6597 84.181 23.9547 83.2539 23.881 82.3186C23.8072 81.3834 23.3707 80.514 22.6646 79.8962C14.4708 73.0633 8.75438 63.7627 7.46542 52.7083H15.5729C16.526 52.7083 17.4401 52.3297 18.1141 51.6557C18.788 50.9818 19.1667 50.0677 19.1667 49.1146C19.1667 48.1615 18.788 47.2474 18.1141 46.5734C17.4401 45.8995 16.526 45.5208 15.5729 45.5208H7.25458C7.78167 36.5029 11.2365 28.2708 16.6894 21.7685L22.6167 27.6958C23.2979 28.3306 24.199 28.6762 25.13 28.6598C26.061 28.6434 26.9493 28.2662 27.6078 27.6078C28.2662 26.9493 28.6434 26.061 28.6598 25.13C28.6762 24.199 28.3306 23.2979 27.6958 22.6167L21.7685 16.6894ZM70.725 22.2046C70.1681 21.7757 69.4817 21.5492 68.779 21.5623C68.0762 21.5753 67.3987 21.8272 66.8581 22.2765L65.8135 23.1533C62.0461 26.3172 58.291 29.4957 54.5483 32.6887C51.405 35.3721 48.1898 38.1513 45.6215 40.4177C44.5094 41.395 43.4088 42.3854 42.32 43.3885C41.6093 44.0251 40.9373 44.7035 40.3075 45.4202C39.5643 46.3351 39.0125 47.3899 38.6847 48.5221C38.3569 49.6543 38.2599 50.8408 38.3993 52.0113C38.5387 53.1817 38.9118 54.3122 39.4964 55.3357C40.081 56.3592 40.8652 57.2549 41.8025 57.9696C43.7114 59.4414 46.1187 60.1115 48.5135 59.8378C50.9083 59.5641 53.1023 58.368 54.6298 56.5033C55.0515 55.9858 55.6121 55.085 56.1871 54.1219C56.8004 53.0917 57.5527 51.774 58.3865 50.2981C60.0492 47.3273 62.0665 43.6281 64.0167 40.02C66.3328 35.7218 68.6312 31.414 70.9119 27.0969L71.5396 25.9037C71.8621 25.2902 71.9573 24.5823 71.8082 23.9053C71.6591 23.2284 71.2754 22.6259 70.725 22.2046V22.2046Z" fill="#2d2d2d"/>
</svg>
