<svg width="88" height="100" viewBox="0 0 88 100" fill="none" xmlns="http://www.w3.org/2000/svg">
<path d="M50 0C22.3858 0 0 22.3858 0 50C0 77.6143 22.3858 100 50 100C77.6143 100 100 77.6143 100 50C100 22.3858 77.6143 0 50 0ZM50 6.68058C73.9254 6.68058 93.3194 26.0745 93.3194 50C93.3194 73.9254 73.9255 93.3226 50 93.3226C26.0745 93.3226 6.67742 73.9255 6.67742 50C6.67742 26.0745 26.0745 6.68058 50 6.68058ZM76.8646 45.0969C78.3037 46.4578 78.2589 48.4092 77.1844 49.7878C75.8702 51.1743 73.7987 51.2333 72.4936 50.1076C68.4174 46.4088 63.9567 42.9478 59.8072 39.1268C59.7945 39.2901 58.682 38.3923 58.2081 38.3804C57.7816 38.3804 57.5683 38.878 57.5683 39.8729C57.7777 43.9792 57.4727 48.3145 57.9415 52.2929C58.1192 53.7499 58.208 54.5851 58.208 54.7982L63.0054 82.0903C63.2803 84.5966 61.9103 86.4686 59.7006 86.8877C57.4875 87.4897 55.2134 85.5814 54.9032 83.5829C54.9032 83.5829 51.0328 61.5458 50.9586 61.1948C50.8844 60.8438 50.7536 58.9001 49.9991 58.7962C49.0296 59.148 49.1419 60.7805 49.0394 61.1948C48.937 61.6092 45.0948 83.5829 45.0948 83.5829C44.4465 85.8948 42.4535 87.2612 40.2975 86.8877C37.834 86.2717 36.6298 84.3029 36.9927 82.0903L41.7901 54.6917C42.4984 49.6276 42.3231 45.0976 42.3231 39.9795C42.3231 38.9842 42.1277 38.4688 41.7368 38.4337C41.3459 38.3981 40.8306 38.6646 40.1909 39.2333L27.5043 50.1075C26.0219 51.2121 23.9497 51.028 22.8134 49.7877C21.6647 48.1463 21.7383 46.3704 23.1333 45.0968L39.7643 30.3847C40.5463 29.887 41.2748 29.5496 41.95 29.3718C42.6253 29.1942 43.4604 29.1053 44.4552 29.1053H55.5427C56.5376 29.1053 57.3728 29.1942 58.0479 29.3718C58.7232 29.5496 59.4517 29.9227 60.2335 30.4912C65.5287 35.136 71.1505 40.1332 76.8646 45.0969V45.0969ZM57.3359 19.8605C57.3359 23.8878 54.0711 27.1526 50.0439 27.1526C46.0166 27.1526 42.7518 23.8878 42.7518 19.8605C42.7518 15.8333 46.0166 12.5685 50.0439 12.5685C54.0712 12.5684 57.3359 15.8333 57.3359 19.8605V19.8605Z" fill="#34B6DC"/>
</svg>
