<svg width="79" height="79" viewBox="0 0 79 79" fill="none" xmlns="http://www.w3.org/2000/svg">
<path d="M39.6154 0.604492C18.0702 0.604492 0.604401 18.0703 0.604401 39.6155C0.604401 61.1607 18.0702 78.6265 39.6154 78.6265C61.1606 78.6265 78.6264 61.1607 78.6264 39.6155C78.6264 18.0703 61.1606 0.604492 39.6154 0.604492ZM39.6154 5.81682C58.2825 5.81682 73.4141 20.9483 73.4141 39.6155C73.4141 58.2826 58.2825 73.4166 39.6154 73.4166C20.9482 73.4166 5.81425 58.2826 5.81425 39.6155C5.81425 20.9483 20.9482 5.81682 39.6154 5.81682ZM60.5757 35.79C61.6985 36.8518 61.6636 38.3743 60.8252 39.4499C59.7998 40.5317 58.1836 40.5778 57.1653 39.6994C53.985 36.8135 50.5047 34.1132 47.2671 31.132C47.2573 31.2594 46.3893 30.559 46.0195 30.5497C45.6867 30.5497 45.5204 30.9379 45.5204 31.7141C45.6837 34.9179 45.4457 38.3004 45.8115 41.4045C45.9502 42.5412 46.0194 43.1929 46.0194 43.3592L49.7625 64.653C49.977 66.6084 48.9081 68.069 47.184 68.396C45.4573 68.8657 43.683 67.3768 43.4409 65.8175C43.4409 65.8175 40.4212 48.6238 40.3633 48.3499C40.3054 48.0761 40.2034 46.5595 39.6147 46.4784C38.8583 46.7529 38.9459 48.0266 38.8659 48.3499C38.786 48.6732 35.7883 65.8175 35.7883 65.8175C35.2824 67.6213 33.7275 68.6874 32.0453 68.396C30.1232 67.9154 29.1837 66.3793 29.4668 64.653L33.2099 43.276C33.7625 39.3249 33.6257 35.7905 33.6257 31.7973C33.6257 31.0207 33.4732 30.6186 33.1682 30.5912C32.8633 30.5634 32.4612 30.7714 31.9621 31.2151L22.0638 39.6994C20.9072 40.5612 19.2904 40.4176 18.4039 39.4498C17.5077 38.1692 17.565 36.7836 18.6534 35.7899L31.6293 24.3112C32.2395 23.9229 32.8078 23.6597 33.3346 23.521C33.8615 23.3824 34.5131 23.3131 35.2892 23.3131H43.9399C44.7161 23.3131 45.3678 23.3824 45.8945 23.521C46.4214 23.6597 46.9898 23.9507 47.5998 24.3944C51.7312 28.0183 56.1174 31.9172 60.5757 35.79V35.79ZM45.339 16.1C45.339 19.2423 42.7917 21.7895 39.6497 21.7895C36.5074 21.7895 33.9602 19.2423 33.9602 16.1C33.9602 12.9579 36.5074 10.4107 39.6497 10.4107C42.7918 10.4106 45.339 12.9579 45.339 16.1V16.1Z" fill="#111111"/>
</svg>
