<svg width="130" height="130" viewBox="0 0 130 130" fill="none" xmlns="http://www.w3.org/2000/svg">
<g filter="url(#filter0_d_147_248)">
<path d="M64.9933 40.6631C60.4028 40.6631 56.6566 44.4094 56.6566 49C56.6566 53.5906 60.4028 57.3369 64.9933 57.3369C69.5838 57.3369 73.33 53.5906 73.33 49C73.33 44.4094 69.5838 40.6631 64.9933 40.6631ZM89.9972 49C89.9972 45.5477 90.0285 42.1266 89.8346 38.6805C89.6407 34.6778 88.7276 31.1254 85.8007 28.1984C82.8675 25.2652 79.3214 24.3584 75.3188 24.1645C71.8665 23.9706 68.4455 24.0019 64.9995 24.0019C61.5473 24.0019 58.1263 23.9706 54.6803 24.1645C50.6776 24.3584 47.1253 25.2715 44.1984 28.1984C41.2652 31.1317 40.3583 34.6778 40.1645 38.6805C39.9706 42.1329 40.0019 45.5539 40.0019 49C40.0019 52.4461 39.9706 55.8734 40.1645 59.3195C40.3583 63.3222 41.2714 66.8746 44.1984 69.8016C47.1315 72.7348 50.6776 73.6417 54.6803 73.8355C58.1325 74.0294 61.5535 73.9981 64.9995 73.9981C68.4518 73.9981 71.8728 74.0294 75.3188 73.8355C79.3214 73.6417 82.8738 72.7285 85.8007 69.8016C88.7339 66.8683 89.6407 63.3222 89.8346 59.3195C90.0347 55.8734 89.9972 52.4523 89.9972 49ZM64.9933 61.8274C57.8949 61.8274 52.1661 56.0985 52.1661 49C52.1661 41.9015 57.8949 36.1726 64.9933 36.1726C72.0917 36.1726 77.8205 41.9015 77.8205 49C77.8205 56.0985 72.0917 61.8274 64.9933 61.8274ZM78.3458 38.643C76.6885 38.643 75.3501 37.3046 75.3501 35.6472C75.3501 33.9899 76.6885 32.6515 78.3458 32.6515C80.0031 32.6515 81.3415 33.9899 81.3415 35.6472C81.342 36.0408 81.2649 36.4306 81.1145 36.7942C80.9641 37.1579 80.7435 37.4884 80.4652 37.7667C80.1869 38.0449 79.8565 38.2656 79.4928 38.416C79.1291 38.5663 78.7393 38.6435 78.3458 38.643Z" fill="#2D2D2D"/>
</g>
<defs>
<filter id="filter0_d_147_248" x="0" y="0" width="130" height="130" filterUnits="userSpaceOnUse" color-interpolation-filters="sRGB">
<feFlood flood-opacity="0" result="BackgroundImageFix"/>
<feColorMatrix in="SourceAlpha" type="matrix" values="0 0 0 0 0 0 0 0 0 0 0 0 0 0 0 0 0 0 127 0" result="hardAlpha"/>
<feOffset dy="16"/>
<feGaussianBlur stdDeviation="20"/>
<feColorMatrix type="matrix" values="0 0 0 0 0.286137 0 0 0 0 0.390985 0 0 0 0 0.495833 0 0 0 0.2 0"/>
<feBlend mode="normal" in2="BackgroundImageFix" result="effect1_dropShadow_147_248"/>
<feBlend mode="normal" in="SourceGraphic" in2="effect1_dropShadow_147_248" result="shape"/>
</filter>
</defs>
</svg>
