<svg width="100" height="80" viewBox="0 0 100 80" fill="none" xmlns="http://www.w3.org/2000/svg">
<path d="M10 0H90C95.5 0 100 4.5 100 10V70C100 75.5 95.5 80 90 80H10C4.5 80 0 75.5 0 70V10C0 4.5 4.5 0 10 0ZM77.5 8.75C76.5054 8.75 75.5516 9.14509 74.8483 9.84835C74.1451 10.5516 73.75 11.5054 73.75 12.5C73.75 13.4946 74.1451 14.4484 74.8483 15.1517C75.5516 15.8549 76.5054 16.25 77.5 16.25C78.4946 16.25 79.4484 15.8549 80.1517 15.1517C80.8549 14.4484 81.25 13.4946 81.25 12.5C81.25 11.5054 80.8549 10.5516 80.1517 9.84835C79.4484 9.14509 78.4946 8.75 77.5 8.75ZM91.25 12.5C91.25 11.5054 90.8549 10.5516 90.1517 9.84835C89.4484 9.14509 88.4946 8.75 87.5 8.75C86.5054 8.75 85.5516 9.14509 84.8483 9.84835C84.1451 10.5516 83.75 11.5054 83.75 12.5C83.75 13.4946 84.1451 14.4484 84.8483 15.1517C85.5516 15.8549 86.5054 16.25 87.5 16.25C88.4946 16.25 89.4484 15.8549 90.1517 15.1517C90.8549 14.4484 91.25 13.4946 91.25 12.5ZM10 70H90V25H10V70ZM10 15H70V10H9.905L10 15Z" fill="#2d2d2d"/>
</svg>
