<svg width="130" height="130" viewBox="0 0 130 130" fill="none" xmlns="http://www.w3.org/2000/svg">
<g filter="url(#filter0_d_147_246)">
<path fill-rule="evenodd" clip-rule="evenodd" d="M40 28.1773C40 27.0694 40.4401 26.0069 41.2235 25.2235C42.0069 24.4401 43.0694 24 44.1773 24H85.8182C86.3672 23.9991 86.911 24.1065 87.4185 24.3161C87.926 24.5256 88.3871 24.8332 88.7756 25.2212C89.164 25.6092 89.4721 26.0701 89.6822 26.5773C89.8923 27.0845 90.0003 27.6282 90 28.1773V69.8182C90.0006 70.3673 89.8929 70.9112 89.6831 71.4187C89.4733 71.9262 89.1655 72.3873 88.7773 72.7757C88.3891 73.1641 87.9281 73.4722 87.4208 73.6822C86.9134 73.8923 86.3696 74.0003 85.8204 74H44.1773C43.6285 74 43.0851 73.8919 42.5782 73.6818C42.0712 73.4717 41.6106 73.1638 41.2227 72.7757C40.8348 72.3876 40.5271 71.9268 40.3173 71.4197C40.1075 70.9127 39.9997 70.3692 40 69.8205V28.1773ZM59.7909 43.0636H66.5614V46.4636C67.5386 44.5091 70.0386 42.75 73.7955 42.75C80.9977 42.75 82.7045 46.6432 82.7045 53.7864V67.0182H75.4159V55.4136C75.4159 51.3455 74.4386 49.05 71.9568 49.05C68.5136 49.05 67.0818 51.525 67.0818 55.4136V67.0182H59.7909V43.0636ZM47.2909 66.7068H54.5818V42.75H47.2909V66.7045V66.7068ZM55.625 34.9364C55.6387 35.5606 55.5277 36.1813 55.2983 36.7621C55.0689 37.3428 54.7258 37.8719 54.2892 38.3183C53.8525 38.7646 53.3311 39.1193 52.7556 39.3614C52.18 39.6035 51.5619 39.7282 50.9375 39.7282C50.3131 39.7282 49.695 39.6035 49.1194 39.3614C48.5439 39.1193 48.0225 38.7646 47.5858 38.3183C47.1492 37.8719 46.8061 37.3428 46.5767 36.7621C46.3473 36.1813 46.2363 35.5606 46.25 34.9364C46.277 33.711 46.7827 32.545 47.6588 31.6879C48.535 30.8309 49.7119 30.351 50.9375 30.351C52.1631 30.351 53.34 30.8309 54.2162 31.6879C55.0923 32.545 55.598 33.711 55.625 34.9364Z" fill="#2D2D2D"/>
</g>
<defs>
<filter id="filter0_d_147_246" x="0" y="0" width="130" height="130" filterUnits="userSpaceOnUse" color-interpolation-filters="sRGB">
<feFlood flood-opacity="0" result="BackgroundImageFix"/>
<feColorMatrix in="SourceAlpha" type="matrix" values="0 0 0 0 0 0 0 0 0 0 0 0 0 0 0 0 0 0 127 0" result="hardAlpha"/>
<feOffset dy="16"/>
<feGaussianBlur stdDeviation="20"/>
<feColorMatrix type="matrix" values="0 0 0 0 0.286137 0 0 0 0 0.390985 0 0 0 0 0.495833 0 0 0 0.2 0"/>
<feBlend mode="normal" in2="BackgroundImageFix" result="effect1_dropShadow_147_246"/>
<feBlend mode="normal" in="SourceGraphic" in2="effect1_dropShadow_147_246" result="shape"/>
</filter>
</defs>
</svg>
