<svg width="100" height="76" viewBox="0 0 100 76" fill="none" xmlns="http://www.w3.org/2000/svg">
<path d="M83.3333 8.99984V50.6665H62.5V33.9998C62.5 31.7897 61.622 29.6701 60.0592 28.1073C58.4964 26.5445 56.3768 25.6665 54.1667 25.6665H33.3333C31.1232 25.6665 29.0036 26.5445 27.4408 28.1073C25.878 29.6701 25 31.7897 25 33.9998V50.6665H16.6667V8.99984H83.3333ZM100 67.3332V58.9998H83.3333C85.5435 58.9998 87.6631 58.1219 89.2259 56.5591C90.7887 54.9963 91.6667 52.8766 91.6667 50.6665V8.99984C91.6667 6.7897 90.7887 4.67008 89.2259 3.10728C87.6631 1.54448 85.5435 0.666504 83.3333 0.666504H16.6667C14.4565 0.666504 12.3369 1.54448 10.7741 3.10728C9.21131 4.67008 8.33334 6.7897 8.33334 8.99984V50.6665C8.33334 52.8766 9.21131 54.9963 10.7741 56.5591C12.3369 58.1219 14.4565 58.9998 16.6667 58.9998H3.8147e-06V67.3332H25C25 69.5433 25.878 71.6629 27.4408 73.2257C29.0036 74.7885 31.1232 75.6665 33.3333 75.6665H54.1667C56.3768 75.6665 58.4964 74.7885 60.0592 73.2257C61.622 71.6629 62.5 69.5433 62.5 67.3332H100ZM52.0833 67.3332C52.6359 67.3332 53.1658 67.5527 53.5565 67.9434C53.9472 68.3341 54.1667 68.864 54.1667 69.4165C54.1667 69.969 53.9472 70.4989 53.5565 70.8896C53.1658 71.2803 52.6359 71.4998 52.0833 71.4998C51.5308 71.4998 51.0009 71.2803 50.6102 70.8896C50.2195 70.4989 50 69.969 50 69.4165C50 68.864 50.2195 68.3341 50.6102 67.9434C51.0009 67.5527 51.5308 67.3332 52.0833 67.3332ZM35.4167 67.3332C35.9692 67.3332 36.4991 67.5527 36.8898 67.9434C37.2805 68.3341 37.5 68.864 37.5 69.4165C37.5 69.969 37.2805 70.4989 36.8898 70.8896C36.4991 71.2803 35.9692 71.4998 35.4167 71.4998C34.8641 71.4998 34.3342 71.2803 33.9435 70.8896C33.5528 70.4989 33.3333 69.969 33.3333 69.4165C33.3333 68.864 33.5528 68.3341 33.9435 67.9434C34.3342 67.5527 34.8641 67.3332 35.4167 67.3332ZM45.8333 67.3332V71.4998H41.6667V67.3332H45.8333ZM54.1667 33.9998V63.1665H33.3333V33.9998H54.1667Z" fill="#2d2d2d"/>
</svg>
