<svg width="130" height="130" viewBox="0 0 130 130" fill="none" xmlns="http://www.w3.org/2000/svg">
<g filter="url(#filter0_d_147_247)">
<path fill-rule="evenodd" clip-rule="evenodd" d="M65 24C51.1875 24 40 35.4705 40 49.6323C40 60.9747 47.1562 70.5547 57.0938 73.951C58.3438 74.1753 58.8125 73.4063 58.8125 72.7335C58.8125 72.1247 58.7812 70.1062 58.7812 67.9595C52.5 69.145 50.875 66.3895 50.375 64.9477C50.0938 64.2107 48.875 61.9359 47.8125 61.3271C46.9375 60.8465 45.6875 59.661 47.7812 59.629C49.75 59.5969 51.1562 61.4873 51.625 62.2563C53.875 66.1332 57.4687 65.0438 58.9062 64.3709C59.125 62.7048 59.7812 61.5834 60.5 60.9426C54.9375 60.3018 49.125 58.091 49.125 48.2866C49.125 45.4991 50.0938 43.1922 51.6875 41.398C51.4375 40.7571 50.5625 38.1298 51.9375 34.6054C51.9375 34.6054 54.0312 33.9325 58.8125 37.2327C60.8125 36.656 62.9375 36.3676 65.0625 36.3676C67.1875 36.3676 69.3125 36.656 71.3125 37.2327C76.0938 33.9005 78.1875 34.6054 78.1875 34.6054C79.5625 38.1298 78.6875 40.7571 78.4375 41.398C80.0312 43.1922 81 45.4671 81 48.2866C81 58.1231 75.1562 60.3018 69.5937 60.9426C70.5 61.7436 71.2812 63.2816 71.2812 65.6846C71.2812 69.1129 71.25 71.8684 71.25 72.7335C71.25 73.4063 71.7187 74.2074 72.9688 73.951C77.9316 72.2331 82.2441 68.9627 85.2993 64.6003C88.3545 60.2378 89.9985 55.0029 90 49.6323C90 35.4705 78.8125 24 65 24Z" fill="#2D2D2D"/>
</g>
<defs>
<filter id="filter0_d_147_247" x="0" y="0" width="130" height="130" filterUnits="userSpaceOnUse" color-interpolation-filters="sRGB">
<feFlood flood-opacity="0" result="BackgroundImageFix"/>
<feColorMatrix in="SourceAlpha" type="matrix" values="0 0 0 0 0 0 0 0 0 0 0 0 0 0 0 0 0 0 127 0" result="hardAlpha"/>
<feOffset dy="16"/>
<feGaussianBlur stdDeviation="20"/>
<feColorMatrix type="matrix" values="0 0 0 0 0.286137 0 0 0 0 0.390985 0 0 0 0 0.495833 0 0 0 0.2 0"/>
<feBlend mode="normal" in2="BackgroundImageFix" result="effect1_dropShadow_147_247"/>
<feBlend mode="normal" in="SourceGraphic" in2="effect1_dropShadow_147_247" result="shape"/>
</filter>
</defs>
</svg>
