<svg width="1138" height="100" viewBox="0 0 1138 100" fill="none" xmlns="http://www.w3.org/2000/svg">
<path d="M525.5 14.0625C525.5 10.3329 526.982 6.75604 529.619 4.11881C532.256 1.48158 535.833 1.40779e-09 539.562 1.40778e-09H636.438C640.167 1.40779e-09 643.744 1.48158 646.381 4.11881C649.018 6.75604 650.5 10.3329 650.5 14.0625V70.3125C650.5 74.0421 649.018 77.619 646.381 80.2562C643.744 82.8934 640.167 84.375 636.438 84.375H539.562C535.833 84.375 532.256 82.8934 529.619 80.2562C526.982 77.619 525.5 74.0421 525.5 70.3125V14.0625ZM517.688 90.625C516.444 90.625 515.252 91.1189 514.373 91.9979C513.494 92.877 513 94.0693 513 95.3125C513 96.5557 513.494 97.748 514.373 98.6271C515.252 99.5061 516.444 100 517.688 100H658.312C659.556 100 660.748 99.5061 661.627 98.6271C662.506 97.748 663 96.5557 663 95.3125C663 94.0693 662.506 92.877 661.627 91.9979C660.748 91.1189 659.556 90.625 658.312 90.625H517.688Z" fill="#F0F3F5"/>
<path d="M40.7292 83.7951C38.9876 83.7976 37.3059 83.1594 36.0045 82.002L0 49.9964L38.004 16.212C39.4205 15.0002 41.2561 14.3927 43.1159 14.5201C44.9757 14.6475 46.7112 15.4997 47.9492 16.8934C49.1873 18.2871 49.8289 20.111 49.7362 21.9729C49.6434 23.8348 48.8237 25.5859 47.4534 26.8497L21.4177 49.9964L45.4539 71.3572C46.5338 72.3154 47.2966 73.5793 47.6412 74.9813C47.9858 76.3832 47.8958 77.8568 47.3831 79.2064C46.8705 80.5559 45.9594 81.7177 44.771 82.5373C43.5825 83.3569 42.1729 83.7956 40.7292 83.7951ZM104.377 83.7809L142.381 49.9964L106.377 17.9909C104.966 16.7378 103.116 16.0964 101.232 16.2078C99.3486 16.3193 97.5864 17.1744 96.3334 18.585C95.0803 19.9957 94.4389 21.8463 94.5504 23.7298C94.6618 25.6134 95.5169 27.3755 96.9275 28.6286L120.964 49.9964L94.9281 73.1361C93.5165 74.3892 92.6605 76.1517 92.5484 78.0359C92.4363 79.92 93.0773 81.7716 94.3304 83.1832C95.5834 84.5948 97.3459 85.4508 99.2301 85.5629C101.114 85.675 102.966 85.034 104.377 83.7809ZM71.0911 93.8636L85.3221 8.47742C85.5041 7.54424 85.4972 6.58406 85.3019 5.65359C85.1065 4.72312 84.7267 3.84123 84.1848 3.06001C83.6429 2.2788 82.95 1.6141 82.1469 1.10519C81.3438 0.596275 80.4469 0.253464 79.5091 0.097007C78.5713 -0.0594504 77.6117 -0.0263824 76.6869 0.194259C75.7621 0.4149 74.8909 0.81864 74.1247 1.38163C73.3586 1.94462 72.713 2.65544 72.2262 3.4721C71.7394 4.28876 71.4212 5.19471 71.2903 6.13642L57.0593 91.5226C56.8773 92.4558 56.8842 93.4159 57.0796 94.3464C57.2749 95.2769 57.6547 96.1588 58.1966 96.94C58.7385 97.7212 59.4314 98.3859 60.2345 98.8948C61.0376 99.4037 61.9345 99.7465 62.8723 99.903C63.8101 100.059 64.7698 100.026 65.6946 99.8057C66.6194 99.5851 67.4906 99.1814 68.2567 98.6184C69.0229 98.0554 69.6684 97.3446 70.1552 96.5279C70.6421 95.7112 70.9603 94.8053 71.0911 93.8636Z" fill="#F0F3F5"/>
<path d="M850 1.40778e-09C836.739 1.4078e-09 824.021 5.26784 814.645 14.6447C805.268 24.0215 800 36.7392 800 50C800 63.2608 805.268 75.9785 814.645 85.3553C824.021 94.7322 836.739 100 850 100C863.261 100 875.979 94.7322 885.355 85.3553C894.732 75.9785 900 63.2608 900 50C900 36.7392 894.732 24.0215 885.355 14.6447C875.979 5.26784 863.261 1.40779e-09 850 1.40778e-09ZM806.167 53.7778H820.111C820.333 58.8333 821.039 63.8556 822.222 68.7778H810.222C807.984 64.0604 806.611 58.98 806.167 53.7778ZM853.778 23.7778V6.61111C859.132 8.64569 863.531 12.609 866.111 17.7222C867.25 19.65 868.256 21.6556 869.111 23.7222L853.778 23.7778ZM871.667 31.2778C872.956 36.1833 873.722 41.2111 873.944 46.2778H853.778V31.2778H871.667ZM846.222 6.61111V23.7778H830.889C831.746 21.7094 832.748 19.7044 833.889 17.7778C836.458 12.6436 840.859 8.65923 846.222 6.61111ZM846.222 31.2778V46.2778H826.111C826.333 41.2111 827.1 36.1833 828.389 31.2778H846.222ZM820.111 46.2222H806.167C806.611 41.02 807.984 35.9396 810.222 31.2222H822.222C821.037 36.1425 820.33 41.1659 820.111 46.2222ZM826.111 53.7778H846.222V68.7778H828.389C827.1 63.8726 826.337 58.8444 826.111 53.7778ZM846.278 76V93.1667C840.924 91.1321 836.525 87.1688 833.944 82.0556C832.804 80.1289 831.801 78.1239 830.944 76.0555L846.278 76ZM853.778 76.2778H869.111C868.254 78.3461 867.252 80.3512 866.111 82.2778C863.531 87.391 859.132 91.3543 853.778 93.3889V76.2778ZM853.778 68.5V53.5H873.889C873.663 58.5666 872.9 63.5948 871.611 68.5H853.778ZM879.944 53.5H893.889C893.445 58.7022 892.071 63.7827 889.833 68.5H877.778C878.944 63.6667 879.65 58.7389 879.889 53.7778L879.944 53.5ZM879.944 46C879.69 41.0351 878.965 36.1055 877.778 31.2778H889.778C892.017 36 893.389 41.0778 893.833 46.2778L879.944 46ZM885.5 23.7778H875.556C873.756 18.7239 871.148 13.9957 867.833 9.77778C874.747 12.881 880.752 17.7003 885.278 23.7778H885.5ZM832.167 9.77778C828.852 13.9957 826.244 18.7239 824.444 23.7778H814.722C819.248 17.7003 825.253 12.881 832.167 9.77778ZM814.667 76.4444H824.444C826.244 81.4983 828.852 86.2265 832.167 90.4444C825.234 87.2945 819.227 82.4164 814.722 76.2778L814.667 76.4444ZM867.778 90.4444C871.093 86.2265 873.701 81.4983 875.5 76.4444H885.278C880.724 82.4405 874.721 87.1814 867.833 90.2222L867.778 90.4444Z" fill="#F0F3F5"/>
<path d="M327.19 3.65854C327.19 2.68823 326.805 1.75767 326.119 1.07156C325.433 0.385452 324.502 1.40778e-09 323.532 1.40778e-09C322.561 1.40778e-09 321.631 0.385452 320.945 1.07156C320.259 1.75767 319.873 2.68823 319.873 3.65854V9.7561C318.329 10.2997 316.927 11.1833 315.771 12.3415L282.215 45.9024C281.196 46.9216 280.387 48.1316 279.835 49.4632C279.284 50.7948 279 52.2221 279 53.6634C279 55.1048 279.284 56.532 279.835 57.8636C280.387 59.1953 281.196 60.4052 282.215 61.4244L306.02 85.2195C307.039 86.2387 308.249 87.0472 309.58 87.5988C310.912 88.1503 312.339 88.4342 313.781 88.4342C315.222 88.4342 316.649 88.1503 317.981 87.5988C319.312 87.0472 320.522 86.2387 321.542 85.2195L355.098 51.6634C356.117 50.6442 356.925 49.4343 357.477 48.1027C358.028 46.771 358.312 45.3438 358.312 43.9024C358.312 42.4611 358.028 41.0339 357.477 39.7022C356.925 38.3706 356.117 37.1606 355.098 36.1415L331.288 12.3415C330.133 11.1839 328.732 10.3004 327.19 9.7561V3.65854ZM319.873 18.5854V25.6098C319.873 26.5801 320.259 27.5106 320.945 28.1967C321.631 28.8828 322.561 29.2683 323.532 29.2683C324.502 29.2683 325.433 28.8828 326.119 28.1967C326.805 27.5106 327.19 26.5801 327.19 25.6098V18.5854L349.917 41.3171C350.602 42.0031 350.987 42.9329 350.987 43.9024C350.987 44.872 350.602 45.8018 349.917 46.4878L345.185 51.2195H287.249L287.39 51.0732L319.873 18.5854ZM363.878 59.0341C363.514 58.3528 362.972 57.783 362.31 57.3858C361.647 56.9885 360.89 56.7787 360.117 56.7787C359.345 56.7787 358.587 56.9885 357.924 57.3858C357.262 57.783 356.72 58.3528 356.356 59.0341L346.561 77.4049C341.093 87.639 348.517 100 360.117 100C371.717 100 379.132 87.639 373.678 77.4049L363.878 59.0341Z" fill="#F0F3F5"/>
<path d="M1133.45 20.7322L1116.29 3.57634C1114.11 1.366 1111.16 0.0858687 1108.05 0.00416489C1104.95 -0.0775389 1101.93 1.04553 1099.64 3.13805L1087.12 15.6606L1079.04 7.89661C1078.46 7.31282 1077.76 6.84973 1077 6.53379C1076.24 6.21784 1075.42 6.05522 1074.59 6.05522C1072.93 6.05522 1071.33 6.71759 1070.15 7.89661C1069.56 8.4804 1069.1 9.17347 1068.79 9.93623C1068.47 10.699 1068.31 11.5165 1068.31 12.3421C1068.31 14.0095 1068.97 15.6086 1070.15 16.7876L1077.91 24.8647L1043.29 59.4895C1041.26 61.5304 1040 64.2055 1039.72 67.0656L1037.03 93.1751C1036.94 94.0922 1037.06 95.0166 1037.37 95.8824C1037.69 96.7482 1038.19 97.5341 1038.84 98.1841C1039.43 98.7644 1040.12 99.2235 1040.88 99.5351C1041.65 99.8467 1042.46 100.005 1043.29 99.9999H1043.85L1069.96 97.6206C1072.82 97.3357 1075.5 96.0755 1077.54 94.0517L1112.47 59.1138L1120.24 66.8778C1120.82 67.4646 1121.51 67.9304 1122.28 68.2483C1123.04 68.5662 1123.86 68.7299 1124.68 68.7299C1125.51 68.7299 1126.33 68.5662 1127.09 68.2483C1127.86 67.9304 1128.55 67.4646 1129.13 66.8778C1129.72 66.2957 1130.18 65.6032 1130.5 64.8402C1130.82 64.0772 1130.98 63.2588 1130.98 62.4323C1130.98 61.6057 1130.82 60.7873 1130.5 60.0243C1130.18 59.2613 1129.72 58.5688 1129.13 57.9868L1121.37 50.2228L1133.89 37.7003C1136.08 35.3896 1137.26 32.3062 1137.18 29.1257C1137.09 25.9451 1135.75 22.9268 1133.45 20.7322ZM1052.05 68.3179L1087.12 33.38L1103.96 50.2854L1086.49 67.7544" fill="#F0F3F5"/>
</svg>
