<svg width="198" height="198" viewBox="0 0 198 198" fill="none" xmlns="http://www.w3.org/2000/svg">
<path fill-rule="evenodd" clip-rule="evenodd" d="M101.043 0.0206581C154.776 1.10831 198 45.0064 198 99C198 153.676 153.676 198 99 198C44.3238 198 0 153.676 0 99C0 44.3238 44.3238 0 99 0C99.095 0 99.1899 0.00013374 99.2848 0.00040104C99.3565 0.000133759 99.4282 0 99.5 0C100.016 0 100.53 0.00691525 101.043 0.0206581ZM142.022 165.269C129.643 173.322 114.868 178 99 178C82.7119 178 67.5751 173.071 55 164.622L55 91.3178C65.3425 104.518 81.4307 113 99.5 113C103.569 113 107.538 112.57 111.363 111.753L111.376 111.822C130.145 108.237 142.229 115.265 147.589 124.827C153.018 134.511 153.105 149.557 142.022 165.269ZM170.718 132.175C175.392 122.088 178 110.849 178 99C178 76.8825 168.911 56.8879 154.264 42.5475C155.398 47.0102 156 51.6847 156 56.5C156 71.1592 150.417 84.5145 141.262 94.5558C151.518 98.5416 159.753 105.624 165.036 115.048C167.996 120.33 169.896 126.112 170.718 132.175ZM20 99C20 81.6955 25.5638 65.6904 35 52.6761L35 145.324C25.5638 132.31 20 116.305 20 99ZM99.2977 20.0005C99.7192 20.0021 100.14 20.007 100.56 20.0151C120.228 20.5759 136 36.6961 136 56.5C136 76.6584 119.658 93 99.5 93C79.3416 93 63 76.6584 63 56.5C63 36.4091 79.2324 20.1095 99.2977 20.0005Z" fill="#082535"/>
</svg>
