<svg width="76" height="60" viewBox="0 0 76 60" fill="none" xmlns="http://www.w3.org/2000/svg">
<path d="M69.1588 51.405C76.235 43.725 75.5225 33.8625 75.5 33.75V3.75C75.5 2.75544 75.1049 1.80161 74.4017 1.09835C73.6984 0.395089 72.7446 0 71.75 0H49.25C45.1138 0 41.75 3.36375 41.75 7.5V33.75C41.75 34.7446 42.1451 35.6984 42.8484 36.4016C43.5516 37.1049 44.5054 37.5 45.5 37.5H57.0425C56.9633 39.354 56.4093 41.1565 55.4338 42.735C53.5288 45.7387 49.94 47.79 44.7613 48.825L41.75 49.425V60H45.5C55.9363 60 63.8975 57.1088 69.1588 51.405ZM27.8825 51.405C34.9625 43.725 34.2463 33.8625 34.2238 33.75V3.75C34.2238 2.75544 33.8287 1.80161 33.1254 1.09835C32.4221 0.395089 31.4683 0 30.4738 0H7.97375C3.8375 0 0.473755 3.36375 0.473755 7.5V33.75C0.473755 34.7446 0.868843 35.6984 1.5721 36.4016C2.27537 37.1049 3.22919 37.5 4.22375 37.5H15.7663C15.687 39.354 15.1331 41.1565 14.1575 42.735C12.2525 45.7387 8.66375 47.79 3.485 48.825L0.473755 49.425V60H4.22375C14.66 60 22.6213 57.1088 27.8825 51.405V51.405Z" fill="#0B3044"/>
</svg>
