<svg width="564" height="518" viewBox="0 0 564 518" fill="none" xmlns="http://www.w3.org/2000/svg">
<path d="M563.561 0C557.493 5.30271 550.927 10.146 543.403 14.3001C525.409 24.2163 502.953 24.2164 484.959 35.0515C432.85 66.4084 433.118 122.862 413.477 173.573C382.599 253.286 328.844 238.622 256.923 245.839C201.311 251.41 137.334 279.168 136.875 344.829C136.588 387.672 184.619 416.043 147.538 447.495C126.71 465.164 89.6866 454.195 65.7957 462.14C32.7734 473.109 14.5298 493.363 0 517.368L563.523 516.22L563.561 0ZM439.953 135.554C442.46 129.639 443.992 123.379 446.5 117.445C448.797 112.027 451.324 106.705 453.506 101.23C457.852 90.2992 462.427 79.9044 469.644 70.5242C479.139 58.1767 493.363 41.3497 510.592 43.1683C511.51 43.264 512.334 44.3552 512.353 45.2358C512.372 51.9742 506.016 56.6452 501.46 60.7036C493.745 67.5569 486.165 74.7931 479.005 82.2207C470.812 90.7395 464.016 99.8518 459.747 110.936C457.794 115.99 456.263 121.273 453.985 126.193C451.687 131.151 448.261 134.769 444.394 138.598C443.398 139.574 442.116 139.383 441.274 138.674C440.221 138.196 439.359 136.952 439.953 135.554ZM312.936 266.858C316.612 261.651 325.648 259.833 331.218 262.743C333.037 263.681 334.607 265.289 335.602 267.184C338.455 270.591 337.784 275.722 334.128 278.383C330.28 281.197 324.04 282.269 319.483 280.852C313.549 278.995 308.725 272.812 312.936 266.858ZM161.685 354.42C155.865 342.36 158.488 328.041 166.566 317.722C171.907 310.888 178.914 304.686 185.269 298.77C190.936 293.506 196.966 288.605 203.475 284.394C216.071 276.239 230.237 270.572 245.073 268.179C260.579 265.672 276.373 267.318 291.917 268.39C293.468 268.505 294.712 269.098 295.65 269.979C301.144 272.946 299.881 280.048 295.688 283.762C290.424 288.414 283.073 288.548 276.698 290.692C269.404 293.142 262.742 297.507 256.674 302.197C242.853 312.879 231.654 326.777 220.206 339.852C211.687 349.577 202.556 362.269 190.017 367.074C178.454 371.477 166.853 365.14 161.685 354.42ZM122.498 415.66C113.156 425.002 97.9948 425.002 88.6529 415.66C79.3109 406.318 79.3109 391.156 88.6529 381.814C97.9948 372.472 113.156 372.472 122.498 381.814C131.84 391.156 131.84 406.318 122.498 415.66ZM367.495 195.013C346.935 215.573 313.606 215.573 293.046 195.013C272.486 174.453 272.486 141.125 293.046 120.565C313.606 100.005 346.935 100.005 367.495 120.565C388.055 141.125 388.055 174.453 367.495 195.013ZM410.146 103.642C402.661 111.127 390.544 111.127 383.078 103.642C375.593 96.1571 375.593 84.0393 383.078 76.5734C390.563 69.0884 402.68 69.0884 410.146 76.5734C417.612 84.0393 417.612 96.1762 410.146 103.642Z" fill="#559AAF"/>
</svg>
