<svg width="434" height="431" viewBox="0 0 434 431" fill="none" xmlns="http://www.w3.org/2000/svg">
<path d="M283.74 133.185C286.34 135.785 286.34 139.994 283.74 142.579C281.141 145.179 276.931 145.179 274.346 142.579C271.747 139.98 271.747 135.77 274.346 133.185C276.946 130.586 281.141 130.586 283.74 133.185ZM269.117 67.3828C260.181 76.3189 260.181 90.8235 269.117 99.7596C278.054 108.696 292.558 108.696 301.494 99.7596C310.43 90.8235 310.43 76.3189 301.494 67.3828C292.558 58.4466 278.068 58.4319 269.117 67.3828ZM434 0C425.359 14.283 418.683 28.7285 394.371 35.3457C361.773 44.2079 328.849 28.6842 296.31 30.5896C190.302 36.8227 277.551 142.579 233.816 193.138C198.426 234.067 140.304 210.257 115.534 264.908C100.217 298.688 98.7847 335.171 78.8742 367.961C60.6474 397.975 35.9217 425.95 0 430.943V392.953C0.516966 392.982 1.04871 392.997 1.5509 392.997C13.1605 393.042 23.4702 386.439 31.9337 379.083C45.4339 367.356 57.073 353.191 67.2646 338.539C72.4047 331.153 77.1165 323.857 79.7309 315.172C80.9125 311.243 85.6833 290.919 83.6302 285.276C81.5919 279.693 75.6247 276.119 69.7756 277.492C57.8558 280.284 59.5396 295.867 55.7436 304.685C49.6582 318.835 36.8966 329.455 22.6283 334.713C14.9772 337.534 7.14889 339.661 0.0147623 343.147V0H360.487C346.973 4.40159 332.822 7.51815 318.776 8.58162C315.157 8.84749 315.009 13.8842 317.889 14.7852C321.464 17.3405 325.511 17.4734 329.735 18.5074C332.69 19.2311 360.886 24.7257 370.974 25.3018C383.47 26.0255 398.58 24.1054 408.226 15.4647C411.711 12.3333 414.872 8.52254 414.695 3.57445C414.651 2.36327 414.414 1.16687 414.075 0H434ZM99.346 245.603C96.6282 237.036 87.633 234.008 80.233 238.912C77.0426 241.024 74.2215 244.333 74.0147 248.262C73.8079 248.616 73.6307 249 73.5125 249.428C70.8686 258.202 80.2626 264.229 88.0614 263.534C97.0566 262.722 102.019 254.037 99.346 245.603Z" fill="#559AAF"/>
</svg>
